<svg width="79" height="60" viewBox="0 0 79 60" fill="none" xmlns="http://www.w3.org/2000/svg">
<g clip-path="url(#clip0)">
<path d="M78.2898 21.1001C77.9898 20.7001 78.0898 20.0001 78.3898 19.6001C78.6898 18.8001 78.7898 18.1001 78.6898 16.7001C78.6898 15.3001 78.1898 14.3001 77.0898 13.3001C76.0898 12.4001 74.3898 12.4001 72.7898 12.5001C72.3898 12.5001 71.9898 12.6001 71.8898 12.5001C71.7898 12.5001 71.6898 12.3001 71.3898 12.0001C70.4898 11.0001 69.5898 11.5001 68.9898 11.7001C68.8898 11.7001 68.7898 11.8001 68.6898 11.8001C68.3898 11.9001 68.1898 12.1001 67.9898 12.2001C67.6898 12.4001 67.5898 12.5001 67.3898 12.4001C67.0898 12.3001 66.7898 11.9001 66.5898 11.5001C66.3898 11.2001 66.1898 10.9001 65.9898 10.6001C65.2898 10.0001 64.6898 10.2001 64.1898 10.3001C64.0898 10.3001 63.5898 10.4001 63.3898 10.4001C62.8898 10.4001 62.1898 10.5001 61.3898 10.8001H61.2898C60.3898 11.2001 59.7898 11.6001 58.8898 11.7001C58.2898 11.8001 57.6898 11.1001 57.0898 10.5001C57.0898 10.5001 56.4898 9.70009 56.1898 9.30009C55.9898 8.90009 55.6898 8.40009 55.2898 8.00009C54.2898 6.90009 53.1898 7.10009 52.4898 7.30009C52.4898 7.30009 52.0898 7.40009 51.8898 7.40009C51.3898 7.50009 50.9898 7.60009 50.3898 7.30009C49.8898 7.00009 50.4898 5.70009 50.4898 5.70009C50.7898 5.00009 50.7898 4.50009 50.5898 3.40009C50.2898 2.10009 49.0898 1.60009 48.2898 1.30009C48.1898 1.30009 47.5898 0.900087 47.2898 0.700087C46.7898 0.400087 46.2898 8.6844e-05 45.6898 -0.0999132C44.7898 -0.299913 43.7898 0.200087 42.9898 1.30009C42.5898 1.80009 41.9898 2.50009 41.4898 2.90009C41.2898 3.00009 41.0898 3.20009 40.8898 3.30009C40.3898 3.60009 39.7898 4.10009 39.1898 4.50009C38.8898 4.70009 37.6898 5.80009 37.0898 6.10009C36.6898 6.30009 36.4898 6.30009 36.1898 6.40009C35.8898 6.40009 35.5898 6.40009 35.1898 6.60009C34.6898 6.80009 33.1898 7.40009 32.3898 8.80009C29.5898 9.80009 25.9898 11.1001 25.7898 11.0001C24.8898 10.4001 24.0898 9.80009 22.9898 10.6001C22.4898 10.9001 21.6898 11.0001 21.2898 10.3001C20.7898 9.40009 19.7898 8.80009 18.9898 8.90009C17.6898 9.10009 17.6898 9.10009 16.2898 8.30009C15.7898 8.20009 15.1898 7.90009 14.4898 8.00009C13.6898 8.30009 13.0898 8.70009 12.4898 9.10009C12.2898 9.20009 11.4898 9.90009 11.3898 10.1001C10.4898 11.2001 9.48976 11.8001 8.68976 12.0001C8.18976 12.2001 7.48976 12.4001 7.38976 12.5001C5.58976 13.7001 5.58976 15.0001 6.08976 16.7001C6.58976 18.4001 6.98976 19.9001 7.08976 21.7001C7.08976 22.7001 6.68976 23.2001 5.88976 24.1001C5.48976 24.6001 4.98976 25.2001 4.48976 25.9001C4.18976 26.3001 3.88976 26.7001 3.58976 27.2001C2.98976 28.0001 2.28976 28.9001 1.78976 30.0001C1.18976 31.3001 0.78976 32.9001 1.18976 34.8001C1.48976 36.3001 1.98976 37.6001 2.58976 38.5001C2.68976 38.7001 2.78976 39.0001 2.88976 39.3001C3.08976 39.8001 3.28976 40.3001 3.68976 40.6001C4.08976 40.9001 4.78976 41.0001 5.68976 41.2001C5.98976 41.2001 6.28976 41.3001 6.38976 41.3001C7.18976 41.6001 7.58976 41.7001 8.18976 41.7001C8.48976 41.7001 8.88976 41.7001 9.38976 41.6001C9.48976 41.6001 9.68976 41.6001 9.88976 41.5001C10.0898 41.5001 10.2898 41.4001 10.4898 41.4001C10.7898 41.4001 10.9898 41.3001 11.1898 41.3001C11.7898 41.2001 12.0898 41.3001 12.7898 41.5001C12.8898 41.5001 13.0898 41.6001 13.1898 41.6001C14.2898 41.9001 15.1898 41.7001 16.0898 41.2001C17.2898 40.7001 18.7898 39.9001 20.5898 38.3001C21.2898 37.8001 22.1898 36.6001 22.9898 36.0001C23.4898 38.9001 35.5898 41.4001 35.0898 46.4001C34.9898 47.8001 33.3898 47.5001 32.5898 48.5001C32.0898 49.1001 31.7898 49.7001 31.5898 50.0001C31.2898 50.4001 31.3898 50.5001 31.1898 50.9001C30.9898 51.6001 30.6898 52.2001 30.2898 52.8001C30.2898 52.8001 30.0898 53.1001 29.9898 53.3001C29.5898 53.7001 29.1898 54.2001 29.0898 54.8001C28.8898 55.8001 29.4898 56.7001 30.0898 57.1001C30.2898 57.2001 30.6898 57.3001 31.0898 57.3001C32.0898 57.3001 33.2898 57.0001 33.9898 56.8001C35.1898 56.4001 35.6898 55.6001 36.0898 54.9001C36.1898 54.8001 36.2898 54.6001 36.3898 54.5001C36.7898 54.2001 37.0898 53.9001 37.3898 53.5001C37.6898 53.3001 38.0898 53.1001 38.4898 52.9001C39.1898 52.5001 39.4898 52.0001 39.6898 51.5001C39.6898 51.5001 40.0898 50.2001 40.1898 49.6001C40.1898 49.4001 40.1898 49.2001 40.1898 49.0001C40.2898 48.7001 40.4898 48.5001 40.6898 48.2001C40.9898 47.8001 41.2898 47.5001 41.6898 47.1001C41.8898 46.9001 42.0898 46.7001 42.2898 46.5001C42.4898 46.4001 42.6898 46.2001 42.7898 46.1001C42.8898 46.0001 42.9898 45.9001 43.0898 45.9001C43.4898 45.7001 43.8898 45.6001 44.4898 45.6001C44.6898 45.8001 44.8898 46.1001 44.9898 46.5001C45.0898 46.7001 45.1898 46.9001 45.2898 47.1001C45.2898 47.2001 45.2898 47.2001 45.2898 47.2001C45.3898 47.5001 45.4898 47.7001 45.5898 47.9001C45.9898 48.7001 46.9898 49.0001 48.5898 49.0001C48.7898 49.0001 48.9898 49.0001 49.1898 49.0001C49.5898 49.0001 50.2898 48.9001 50.6898 48.9001C50.9898 49.1001 51.1898 49.5001 51.0898 49.9001C50.5898 50.3001 50.1898 50.9001 49.5898 51.7001C48.6898 53.0001 48.9898 53.8001 49.2898 54.6001C49.5898 55.2001 50.3898 55.5001 51.0898 55.8001C51.1898 55.8001 51.2898 55.9001 51.3898 55.9001C51.6898 56.1001 51.9898 56.3001 52.2898 56.5001C52.7898 57.0001 53.2898 57.6001 53.6898 58.1001L53.7898 58.2001C54.4898 59.0001 55.4898 59.6001 56.3898 59.6001C56.4898 59.6001 56.5898 59.6001 56.6898 59.6001C57.5898 59.4001 57.6898 58.7001 57.8898 58.2001C57.8898 58.1001 57.9898 57.9001 57.9898 57.7001C58.0898 57.2001 58.7898 56.7001 59.5898 56.2001C59.6898 56.1001 59.8898 56.0001 59.9898 55.9001C60.8898 55.3001 61.0898 54.8001 61.2898 54.2001C61.2898 54.0001 61.3898 53.9001 61.4898 53.7001C61.6898 53.4001 62.1898 53.2001 62.6898 52.9001C62.9898 52.8001 63.1898 52.7001 63.4898 52.5001C63.5898 52.4001 63.7898 52.4001 63.8898 52.3001C64.7898 51.8001 65.6898 51.4001 65.8898 50.7001C66.1898 49.9001 66.0898 48.8001 65.6898 48.1001C65.2898 47.3001 64.1898 47.3001 62.9898 47.3001C62.6898 47.3001 62.3898 47.3001 62.0898 47.3001C61.0898 47.3001 60.2898 46.5001 60.0898 45.9001C59.8898 45.4001 60.9898 44.1001 61.5898 43.3001C62.3898 42.2001 63.4898 41.4001 64.4898 40.7001L64.7898 40.5001C65.2898 40.1001 65.8898 40.1001 66.4898 40.0001C66.8898 40.0001 67.2898 39.9001 67.6898 39.7001C68.4898 39.4001 69.0898 38.6001 69.6898 37.9001C69.8898 37.7001 69.9898 37.5001 70.1898 37.3001C70.7898 36.7001 71.2898 35.9001 71.7898 35.3001C71.9898 35.0001 72.1898 34.8001 72.2898 34.6001C72.4898 34.4001 72.6898 34.2001 72.7898 34.0001C73.0898 33.7001 73.4898 33.3001 73.5898 32.6001C73.5898 32.2001 73.5898 31.8001 73.4898 31.6001C73.3898 31.3001 73.2898 31.0001 73.3898 30.4001C73.3898 30.2001 73.3898 30.1001 73.4898 30.0001C73.4898 30.0001 73.5898 30.0001 73.6898 30.0001C73.8898 30.0001 74.1898 29.9001 74.3898 29.8001L74.4898 29.7001C75.0898 29.3001 75.8898 28.6001 76.4898 27.9001C77.1898 27.1001 77.7898 25.7001 78.2898 24.2001L78.3898 24.1001C79.2898 22.7001 78.8898 21.9001 78.2898 21.1001Z" fill="white"/>
<path fill-rule="evenodd" clip-rule="evenodd" d="M45.9897 34.2999L45.8897 33.5999C45.6897 32.5999 44.7897 32.2999 43.2897 32.4999C41.9897 32.5999 41.6897 32.9999 41.4897 33.3999C41.3897 33.2999 41.1897 33.1999 41.0897 33.0999C40.7897 32.8999 40.6897 32.6999 40.4897 33.1999C40.1897 35.6999 40.2897 38.1999 40.3897 40.6999C40.3897 41.9999 40.2897 43.2999 41.0897 44.3999C41.2897 44.6999 41.3897 44.6999 41.7897 44.6999C41.9897 44.6999 42.0897 44.5999 42.1897 44.4999C42.4897 44.1999 42.6897 43.8999 42.8897 43.4999C42.8897 43.1999 42.8897 42.9999 42.8897 42.6999C42.6897 41.1999 43.1897 40.6999 44.5897 41.0999C45.2897 41.2999 45.5897 40.8999 45.7897 40.1999C46.0897 39.1999 46.1897 38.2999 46.0897 37.2999C45.9897 36.1999 45.9897 35.1999 45.9897 34.2999ZM43.6897 36.7999C43.6897 37.3999 43.6897 37.9999 43.6897 38.5999C43.6897 38.8999 43.5897 39.1999 43.1897 39.1999C42.8897 39.1999 42.6897 38.8999 42.6897 38.5999C42.6897 37.3999 42.6897 36.0999 42.6897 34.8999C42.6897 34.5999 42.8897 34.3999 43.2897 34.3999C43.5897 34.3999 43.7897 34.5999 43.6897 34.9999C43.6897 35.6999 43.6897 36.1999 43.6897 36.7999Z" fill="#7649AD"/>
<path fill-rule="evenodd" clip-rule="evenodd" d="M50.1898 35.6999C49.6898 35.7999 49.1898 35.8999 48.6898 35.8999C48.4898 35.8999 48.0898 35.8999 48.0898 35.5999C48.0898 35.2999 48.1898 34.9999 48.4898 34.8999C48.8898 34.7999 49.3898 34.6999 49.8898 34.6999C50.5898 34.6999 51.2898 34.6999 52.0898 34.6999C52.4898 34.6999 52.8898 34.5999 52.8898 34.1999C52.9898 33.7999 52.7898 33.3999 52.3898 33.1999C51.5898 32.6999 50.7898 32.7999 49.8898 32.7999C49.5898 32.7999 48.0898 32.7999 48.0898 32.7999C47.0898 32.8999 46.7898 33.4999 46.6898 33.8999C46.4898 34.5999 46.4898 35.3999 46.4898 36.0999C46.4898 37.5999 47.5898 38.3999 48.9898 37.8999C49.5898 37.6999 50.0898 37.5999 50.5898 37.4999C50.9898 37.3999 51.2898 37.4999 51.3898 37.7999C51.5898 38.1999 51.3898 38.4999 51.0898 38.6999C50.3898 39.1999 49.7898 38.9999 49.0898 38.7999C48.4898 38.6999 47.9898 38.5999 47.3898 38.6999C46.7898 38.7999 46.2898 38.9999 46.3898 39.4999C46.4898 39.9999 46.5898 40.7999 47.2898 40.7999C48.6898 40.8999 50.1898 40.9999 51.5898 40.6999C52.4898 40.4999 52.8898 39.6999 53.0898 38.9999C53.6898 36.7999 52.6898 35.0999 50.1898 35.6999Z" fill="#7649AD"/>
<path fill-rule="evenodd" clip-rule="evenodd" d="M39.4898 33.6C39.4898 32.9 38.8898 32.4 37.6898 32.5C36.4898 32.6 35.6898 32.9 35.4898 33C35.1898 32.9 34.1898 32.5 33.1898 32.5C32.4898 32.5 31.6898 32.6 31.6898 32.6C31.0898 32.8 30.7898 33.2 30.5898 33.8C30.3898 34.4 30.3898 37.1 30.4898 37.4V39C30.4898 39 30.5898 39.8 30.6898 40C30.9898 40.7 31.2898 41.2 32.2898 41.1C32.9898 41 33.0898 40.2 33.0898 39.5C33.0898 39.3 33.0898 39.1 33.0898 38.9V38.7C33.0898 38.1 33.0898 37.4 33.0898 36.8V35.4C33.0898 35.3 33.0898 35.2 33.1898 35C33.2898 34.8 33.2898 34.4 33.6898 34.4C34.0898 34.4 34.1898 34.7 34.1898 35.1C34.1898 36.5 34.1898 37.8 34.1898 39.2C34.1898 39.6 34.1898 40.2 34.4898 40.5C34.7898 40.8 34.8898 41.1 35.5898 40.9C36.0898 40.8 36.2898 40.3 36.2898 39.7C36.2898 38.3 36.2898 36.9 36.2898 35.5C36.2898 35.1 36.2898 34.8 36.4898 34.5C36.5898 34.3 36.6898 34.2 36.9898 34.2C37.1898 34.2 37.3898 34.3 37.4898 34.5C37.5898 34.9 37.5898 35.1 37.5898 35.5C37.5898 36.8 37.5898 38.4 37.5898 39.7C37.5898 40.4 37.7898 41 38.4898 41.1C38.9898 41.2 39.3898 40.8 39.3898 40.8V40.7C39.6898 40 39.6898 39.2 39.6898 38.4C39.6898 37 39.6898 35.6 39.6898 34.2C39.4898 34 39.4898 33.8 39.4898 33.6Z" fill="#7649AD"/>
<path fill-rule="evenodd" clip-rule="evenodd" d="M56.3898 20.9999V14.6999C56.3898 12.3999 54.7898 10.8999 54.0898 10.3999C53.3897 9.89988 51.2898 10.2999 50.0898 10.1999C48.8897 10.0999 47.3898 10.1999 47.3898 10.1999C47.3898 10.1999 46.9898 10.2999 47.3898 9.99988C46.0898 8.79988 44.6898 8.49988 44.6898 8.49988C44.5898 8.49988 44.4898 8.39988 44.2898 8.39988C43.5898 8.39988 42.2898 8.49988 40.9898 8.39988C39.6898 8.29988 38.5898 7.59988 37.8898 7.89988C37.2898 8.19988 36.8898 8.39988 36.5898 8.49988C36.2898 8.59988 35.8898 8.49988 34.7898 9.29988C33.6898 9.99988 32.8898 10.0999 32.2898 10.0999C31.6898 10.0999 31.2898 10.7999 30.7898 10.8999C30.2898 10.9999 28.7898 11.9999 28.1898 13.0999C27.5898 14.2999 26.4898 14.9999 26.5898 18.2999C26.6898 21.5999 26.5898 23.0999 26.5898 23.5999C26.5898 24.0999 26.5898 24.3999 27.4898 25.1999C28.3898 25.9999 29.3898 27.1999 29.9898 27.2999C29.9898 27.4999 30.0898 27.5999 30.1898 27.6999C30.7898 28.1999 32.2898 27.6999 32.2898 27.6999C32.2898 27.6999 32.9898 28.5999 34.0898 28.4999C35.1898 28.3999 35.9898 28.0999 36.3898 27.7999C36.4898 27.8999 36.4898 27.8999 36.5898 27.9999C37.2898 28.6999 37.9898 28.6999 38.7898 28.2999C39.5898 27.8999 39.8898 27.6999 40.2898 27.2999C40.3898 27.2999 40.3898 27.2999 40.3898 27.2999C40.5898 27.6999 41.4898 28.3999 42.4898 28.5999C43.3898 28.7999 44.4898 28.1999 45.2898 27.5999V27.6999C45.2898 27.6999 45.7898 28.5999 47.3898 28.5999C48.9898 28.5999 49.5898 27.8999 50.1898 27.3999C50.7898 26.8999 51.5898 26.3999 52.9898 25.7999C54.3898 25.2999 56.1898 24.0999 56.3898 23.8999C56.5898 23.6999 56.3898 21.5999 56.3898 20.9999Z" fill="#7649AD"/>
<path d="M56.5898 21.8C56.5898 21.4 56.5898 21.1 56.5898 21V14.7C56.5898 12.4 54.9898 10.8 54.1898 10.2C53.6898 9.89995 52.6898 9.89995 51.6898 9.89995C51.0898 9.89995 50.4898 9.89995 50.0898 9.89995C49.1898 9.79995 48.1898 9.79995 47.6898 9.89995L47.4898 9.79995C46.1898 8.59995 44.7898 8.29995 44.6898 8.29995C44.5898 8.29995 44.3898 8.19995 44.1898 8.19995C43.9898 8.19995 43.7898 8.19995 43.4898 8.19995C42.7898 8.19995 41.8898 8.29995 40.8898 8.19995C40.3898 8.09995 39.8898 7.99995 39.3898 7.89995C38.6898 7.69995 38.0898 7.49995 37.6898 7.79995C37.2898 7.99995 36.9898 8.09995 36.7898 8.19995C36.6898 8.29995 36.4898 8.29995 36.3898 8.39995C36.2898 8.39995 36.2898 8.39995 36.1898 8.49995C35.8898 8.59995 35.3898 8.69995 34.5898 9.19995C33.5898 9.89995 32.8898 9.99995 32.1898 9.99995C31.7898 9.99995 31.4898 10.3 31.1898 10.5C30.9898 10.6 30.7898 10.8 30.5898 10.8C30.0898 10.9 28.4898 11.9 27.8898 13.1C27.7898 13.4 27.5898 13.6 27.4898 13.8C26.8898 14.7 26.1898 15.7 26.2898 18.4C26.3898 20.9 26.2898 22.3 26.2898 23.1C26.2898 23.4 26.2898 23.5 26.2898 23.7C26.2898 24.3 26.2898 24.6 27.1898 25.4C27.3898 25.6 27.6898 25.9 27.8898 26.1C28.4898 26.7 29.1898 27.3 29.6898 27.5C29.6898 27.7 29.7898 27.8 29.9898 27.9C30.2898 28.1 30.5898 28.3 30.9898 28.3C31.2898 28.3 31.5898 28.2 32.0898 28C32.2898 28.2 32.8898 28.8 33.7898 28.8C33.8898 28.8 33.8898 28.8 33.9898 28.8C34.9898 28.7 35.7898 28.5 36.2898 28.2C36.2898 28.2 36.2898 28.2 36.3898 28.3C36.7898 28.7 37.1898 28.9 37.6898 28.9C37.9898 28.9 38.3898 28.8 38.7898 28.6C39.5898 28.2 39.7898 28 40.1898 27.7C40.4898 28.2 41.3898 28.7 42.2898 29C42.3898 29 42.5898 29 42.6898 29C43.5898 29 44.4898 28.5 45.0898 28.1C45.2898 28.4 45.8898 29 47.2898 29C48.7898 29 49.3898 28.5 49.9898 28C50.0898 27.9 50.1898 27.9 50.2898 27.8C50.8898 27.4 51.5898 26.8 52.9898 26.3C54.4898 25.7 56.2898 24.5 56.4898 24.3C56.6898 23.9 56.6898 23.4 56.5898 21.8ZM46.3898 9.99995C45.8898 9.99995 45.1898 9.89996 44.9898 9.59996C44.8898 9.29996 44.9898 8.89995 44.9898 8.69995C45.4898 8.89995 46.3898 9.29995 46.9898 9.89995C46.9898 9.99995 46.5898 9.99995 46.3898 9.99995ZM27.5898 25.1C26.7898 24.4 26.7898 24.2 26.7898 23.7C26.7898 23.6 26.7898 23.4 26.7898 23.2C26.7898 22.4 26.8898 21 26.7898 18.5C26.6898 16 27.3898 15 27.8898 14.1C28.0898 13.8 28.1898 13.6 28.3898 13.3C28.9898 12.2 30.3898 11.3 30.8898 11.1C31.1898 11 31.3898 10.9 31.5898 10.7C31.8898 10.5 32.0898 10.3 32.3898 10.3C32.8898 10.3 33.7898 10.3 34.9898 9.49995C35.6898 8.99995 36.0898 8.89995 36.3898 8.79995C36.4898 8.79995 36.5898 8.69995 36.6898 8.69995C36.7898 8.59995 36.8898 8.59995 37.0898 8.49995C37.2898 8.39995 37.5898 8.29996 37.9898 8.09996C38.2898 7.89996 38.7898 8.09995 39.4898 8.29995C39.9898 8.39995 40.4898 8.59996 40.9898 8.59996C41.9898 8.69996 42.8898 8.69996 43.6898 8.59996C43.9898 8.59996 44.1898 8.59996 44.3898 8.59996C44.6898 8.59996 44.7898 8.59995 44.7898 8.69995C44.7898 8.79995 44.6898 9.29995 44.7898 9.79995C44.9898 10.3 46.0898 10.3 46.2898 10.3H46.3898C46.0898 10.5 44.7898 11.3 43.8898 11.7C42.8898 12.1 41.7898 11.7 41.7898 11.7H41.6898H41.5898C41.2898 11.9 40.3898 12.4 40.0898 12.5C39.8898 12.5 39.5898 12.7 39.1898 12.9C39.2898 12.5 39.2898 12.1 39.1898 11.9C39.1898 11.8 39.0898 11.7 38.9898 11.7C38.8898 11.7 38.8898 11.8 38.8898 11.9C38.8898 11.9 38.9898 12.7 38.4898 13.2C38.2898 13.4 37.7898 13.7 37.7898 13.7L38.0898 13.9C38.9898 14.5 40.0898 15.3 40.4898 15.6C40.7898 15.8 40.7898 15.9 40.8898 15.9C40.9898 16.1 40.8898 16.3 40.6898 16.5C40.2898 16.9 38.8898 17.9 38.0898 18.3C37.7898 18.5 37.4898 18.3 37.1898 18.1C37.1898 18.1 37.1898 18.1 37.0898 18.1C36.7898 17.9 35.9898 17.2 35.6898 17L35.5898 16.6C35.5898 16.5 35.6898 16.3 35.5898 16.3C35.4898 16.3 35.3898 16.4 35.3898 16.6L35.2898 16.9C34.9898 16.9 34.8898 17 34.7898 17.1C34.6898 17.2 34.6898 17.2 34.7898 17.3C34.8898 17.4 34.9898 17.3 34.9898 17.3C34.9898 17.3 35.2898 17.1 35.6898 17.4C35.9898 17.6 36.1898 17.8 36.3898 17.9C36.5898 18.1 36.7898 18.2 36.8898 18.3C36.9898 18.4 37.0898 18.5 37.0898 18.7C37.0898 18.8 37.0898 18.9 36.8898 19.1C36.7898 19.2 36.6898 19.2 36.5898 19.3C36.1898 19.6 35.4898 20.1 35.0898 20.5C34.9898 20.6 34.8898 20.7 34.7898 20.8C34.4898 21.1 34.2898 21.2 34.1898 21.1C34.0898 21 33.9898 20.9 33.7898 20.8C33.5898 20.6 33.2898 20.5 33.0898 20.3C32.9898 20.2 32.8898 20.2 32.7898 20.1C32.7898 20 32.6898 19.7 32.7898 19.5C32.7898 19.4 32.7898 19.3 32.6898 19.3C32.5898 19.3 32.4898 19.3 32.4898 19.4C32.4898 19.6 32.3898 19.8 32.3898 20C32.1898 20 31.9898 20.2 31.8898 20.3C31.7898 20.4 31.7898 20.4 31.8898 20.5C31.9898 20.6 31.9898 20.5 32.0898 20.5C32.0898 20.5 32.3898 20.4 32.5898 20.5C32.6898 20.5 32.7898 20.6 32.9898 20.8C33.1898 20.9 33.4898 21.1 33.6898 21.3C33.8898 21.5 33.9898 21.6 34.0898 21.7C34.0898 21.7 34.0898 21.8 34.0898 21.9C34.0898 21.9 33.6898 22.3 33.5898 22.5C32.9898 23.1 32.3898 23.6 31.9898 24.1C31.9898 24.2 31.8898 24.2 31.7898 24.2C31.6898 24.2 31.6898 24.2 31.5898 24.1C31.2898 23.7 30.9898 23.4 31.0898 23.1C31.0898 23 31.1898 23 31.0898 22.9C30.9898 22.9 30.8898 22.9 30.8898 23C30.8898 23.2 30.8898 23.4 30.8898 23.6C30.6898 23.6 30.4898 23.5 30.3898 23.5C30.2898 23.5 30.1898 23.6 30.1898 23.7C30.1898 23.8 30.2898 23.8 30.3898 23.8C30.6898 23.8 31.0898 24 31.1898 24.1C31.4898 24.4 31.4898 24.7 31.3898 24.9C31.2898 25 31.1898 25.2 31.1898 25.3C31.1898 25.3 31.1898 25.4 31.0898 25.4C30.9898 25.6 30.7898 25.8 30.6898 26.1C30.4898 26.4 30.3898 26.8 30.2898 27.1V27.3C29.8898 27.1 29.2898 26.6 28.7898 26C28.0898 25.5 27.7898 25.3 27.5898 25.1ZM34.0898 28.4C33.3898 28.5 32.8898 28.1 32.6898 27.8C32.7898 27.7 32.9898 27.7 33.0898 27.6C33.6898 27.3 34.3898 26.9 34.9898 26.6C35.1898 26.8 35.5898 27.4 36.0898 27.9C35.6898 28.1 34.8898 28.3 34.0898 28.4ZM56.2898 23.8C55.9898 24 54.2898 25.2 52.8898 25.7C51.3898 26.3 50.5898 26.8 50.0898 27.3C49.9898 27.4 49.8898 27.4 49.7898 27.5C49.2898 28 48.6898 28.4 47.3898 28.4C46.1898 28.4 45.5898 27.9 45.4898 27.7C45.4898 27.7 45.5898 27.7 45.5898 27.6C46.3898 27 47.6898 25.7 47.6898 25.7C47.7898 25.6 47.7898 25.6 47.7898 25.5C47.6898 25.4 47.6898 25.5 47.5898 25.5C47.5898 25.5 46.1898 26.6 45.3898 27.3C44.9898 27.6 43.5898 28.7 42.4898 28.4C41.5898 28.2 40.8898 27.6 40.5898 27.3C40.6898 27.2 40.7898 27.2 40.8898 27.1C41.8898 26.2 42.9898 25.4 42.9898 25.4C43.0898 25.3 43.0898 25.2 42.9898 25.1C42.8898 25 42.8898 25.1 42.7898 25.1C42.7898 25.1 41.6898 25.9 40.5898 26.7C40.4898 26.8 40.3898 26.9 40.2898 26.9C39.6898 27.4 39.4898 27.6 38.5898 28C37.7898 28.4 37.2898 28.3 36.6898 27.8C36.1898 27.3 35.5898 26.6 35.2898 26.3C36.2898 25.8 37.1898 25.2 37.8898 24.8C39.0898 24 41.6898 21.9 41.6898 21.9C41.7898 21.8 41.7898 21.8 41.6898 21.7C41.5898 21.6 41.4898 21.6 41.3898 21.7C41.3898 21.7 38.7898 23.7 37.5898 24.5C36.9898 25 35.9898 25.6 34.9898 26.2C34.2898 26.6 33.5898 27 32.8898 27.3C31.3898 28.1 30.8898 28 30.3898 27.6C30.1898 27.5 30.1898 27.3 30.2898 27C30.3898 26.7 30.5898 26.4 30.6898 26.1C30.7898 26 30.7898 25.8 30.8898 25.7C30.9898 25.6 30.9898 25.5 31.0898 25.4C31.1898 25.2 31.2898 25.1 31.3898 24.9C31.5898 24.7 31.7898 24.4 31.9898 24.1C32.1898 23.9 33.7898 22.3 34.0898 21.9C34.3898 21.6 34.7898 21.2 35.0898 20.9C35.1898 20.8 35.2898 20.7 35.3898 20.6C36.5898 19.5 38.5898 18.3 39.4898 17.7C39.6898 17.6 39.7898 17.5 39.9898 17.4C40.5898 17 41.3898 16.4 42.0898 15.7C42.2898 15.5 42.6898 15.1 42.8898 15C43.4898 14.4 45.0898 14 45.0898 14C45.1898 14 45.2898 14 45.2898 13.9C45.2898 13.8 45.1898 13.8 45.0898 13.8C44.9898 13.8 44.3898 13.9 43.7898 14.1L43.8898 13.9C43.8898 13.8 43.8898 13.8 43.7898 13.7C43.6898 13.6 43.6898 13.7 43.5898 13.8C43.5898 13.8 43.1898 14.3 42.6898 14.8C42.4898 15 42.2898 15.2 41.9898 15.5C41.7898 15.6 41.7898 15.6 41.5898 15.5C40.9898 15.3 40.6898 15 40.6898 15C40.2898 14.7 39.6898 14.3 38.7898 13.6C38.8898 13.5 38.9898 13.5 38.9898 13.4C39.0898 13.4 39.1898 13.3 39.2898 13.3C39.6898 13.1 40.1898 12.8 40.3898 12.8C40.6898 12.7 41.5898 12.2 41.8898 12C42.1898 12.1 43.1898 12.3 44.1898 12C45.1898 11.6 46.6898 10.7 46.8898 10.6L47.6898 10.4C47.8898 10.4 49.1898 10.3 50.3898 10.4C50.8898 10.5 51.4898 10.4 52.0898 10.4C52.9898 10.4 53.9898 10.3 54.3898 10.6C54.9898 11 56.5898 12.5 56.5898 14.7V21C56.5898 21.2 56.5898 21.5 56.5898 21.9C56.2898 22.5 56.3898 23.6 56.2898 23.8Z" fill="white"/>
</g>
<defs>
<clipPath id="clip0">
<rect width="78" height="60" fill="white" transform="translate(0.989746)"/>
</clipPath>
</defs>
</svg>
