<svg width="104" height="60" viewBox="0 0 104 60" fill="none" xmlns="http://www.w3.org/2000/svg">
<g clip-path="url(#clip0)">
<path d="M1.78634 50.9632C2.31173 50.9632 2.52189 50.5429 2.52189 49.0718C2.52189 48.021 2.41681 47.1804 1.78634 47.1804C1.26095 47.1804 1.05079 47.9159 1.05079 49.0718C1.05079 50.2277 1.26095 50.9632 1.78634 50.9632ZM1.78634 45.9194C2.62697 45.9194 3.57268 46.7601 3.57268 48.9667C3.57268 51.2784 2.52189 52.014 1.78634 52.014C0.945709 52.014 0 51.1734 0 48.8616C0 46.9702 0.945709 45.9194 1.78634 45.9194Z" fill="white"/>
<path d="M5.67425 48.5463C6.19965 48.5463 6.30473 48.2311 6.30473 47.8108C6.30473 47.3904 6.19965 47.0752 5.67425 47.0752H5.35902V48.5463H5.67425ZM4.30823 46.0244H5.77933C6.83012 46.0244 7.25043 46.9701 7.25043 47.8108C7.25043 48.4412 7.04028 49.5971 5.67425 49.5971H5.35902V52.0139H4.30823V46.0244Z" fill="white"/>
<path d="M10.5079 50.4377C10.8231 50.4377 11.2435 49.8073 11.2435 48.9666C11.2435 48.126 10.8231 47.4955 10.5079 47.4955V50.4377ZM9.45712 47.6006C9.14188 47.6006 8.72156 48.126 8.72156 49.0717C8.82664 49.8073 9.14188 50.4377 9.45712 50.4377V47.6006ZM9.45712 46.0244H10.5079V46.5498C11.4536 46.5498 12.2942 47.6006 12.2942 49.0717C12.2942 50.5428 11.4536 51.5936 10.5079 51.5936V52.119H9.45712V51.4885C8.51141 51.4885 7.67078 50.4377 7.67078 48.9666C7.67078 47.4955 8.51141 46.4447 9.45712 46.4447V46.0244Z" fill="white"/>
<path d="M14.6059 49.8073L14.2907 47.6006L13.9755 49.8073H14.6059ZM13.6602 46.0244H14.711L15.972 52.119H14.9212L14.711 50.753H13.6602L13.4501 52.0139H12.3993L13.6602 46.0244Z" fill="white"/>
<path d="M16.4974 46.0244H17.5482V48.4412H18.704V46.0244H19.7548V52.0139H18.704V49.492H17.5482V52.0139H16.4974V46.0244Z" fill="white"/>
<path d="M20.5955 46.0244H21.6462V48.4412H22.8021V46.0244H23.8529V52.0139H22.8021V49.492H21.6462V52.0139H20.5955V46.0244Z" fill="white"/>
<path d="M25.8494 46.0244H24.7986V52.0139H25.8494V46.0244Z" fill="white"/>
<path d="M28.7916 50.7529C29.2119 50.9631 29.4221 51.0681 29.7373 51.0681C30.1577 51.0681 30.4729 50.7529 30.4729 50.2275C30.4729 49.8072 30.2627 49.3869 29.7373 49.3869H29.5272V48.3361H29.8424C30.2627 48.3361 30.4729 48.0209 30.4729 47.6005C30.4729 47.1802 30.1577 46.865 29.8424 46.865C29.5272 46.865 29.317 46.9701 28.8967 47.1802V46.1294C29.4221 45.9193 29.7373 45.8142 30.0526 45.8142C30.7881 45.8142 31.5237 46.3396 31.5237 47.2853C31.5237 47.9158 31.2084 48.4412 30.7881 48.6513C31.3135 48.9666 31.6288 49.492 31.6288 50.2275C31.6288 51.2783 30.9983 52.0139 30.1577 52.0139C29.8424 52.0139 29.4221 51.9088 28.8967 51.6986V50.7529H28.7916Z" fill="white"/>
<path d="M34.0455 49.8073L33.6252 47.6006L33.31 49.8073H34.0455ZM33.0998 46.0244H34.1506L35.4115 52.119H34.3608L34.1506 50.858H33.0998L32.8897 52.119H31.8389L33.0998 46.0244Z" fill="white"/>
<path d="M36.8827 48.8615L35.6217 46.0244H36.7776L37.5132 47.7057L38.1436 46.0244H39.2995L38.0386 48.8615L39.4046 52.0139H38.2487L37.5132 50.0174L36.6725 52.0139H35.5167L36.8827 48.8615Z" fill="white"/>
<path d="M41.296 51.0682C41.7163 51.0682 41.9264 50.753 41.9264 50.2276C41.9264 49.8073 41.8213 49.3869 41.401 49.3869H40.9807V51.0682H41.296ZM41.1909 48.4412C41.6112 48.4412 41.8213 48.2311 41.8213 47.7057C41.8213 47.1803 41.6112 46.9701 41.1909 46.9701H40.9807V48.4412H41.1909ZM39.9299 46.0244H41.5061C42.4518 46.0244 42.8721 46.76 42.8721 47.6006C42.8721 48.126 42.662 48.5463 42.2417 48.8615C42.7671 49.1768 42.9772 49.7022 42.9772 50.3327C42.9772 51.2784 42.4518 52.119 41.5061 52.119H39.9299V46.0244Z" fill="white"/>
<path d="M45.394 50.9632C45.9194 50.9632 46.1296 50.5429 46.1296 49.0718C46.1296 48.021 46.0245 47.1804 45.394 47.1804C44.8686 47.1804 44.6585 47.9159 44.6585 49.0718C44.6585 50.2277 44.7635 50.9632 45.394 50.9632ZM45.394 45.9194C46.2346 45.9194 47.1803 46.7601 47.1803 48.9667C47.1803 51.2784 46.1296 52.014 45.394 52.014C44.5534 52.014 43.6077 51.1734 43.6077 48.8616C43.6077 46.9702 44.4483 45.9194 45.394 45.9194Z" fill="white"/>
<path d="M49.282 48.5463C49.8074 48.5463 49.9124 48.2311 49.9124 47.8108C49.9124 47.3904 49.8074 47.0752 49.282 47.0752H48.9667V48.5463H49.282ZM47.9159 46.0244H49.387C50.4378 46.0244 50.8581 46.9701 50.8581 47.8108C50.8581 48.4412 50.648 49.5971 49.282 49.5971H48.8616V52.0139H47.8109V46.0244H47.9159Z" fill="white"/>
<path d="M54.9562 50.9632C55.4816 50.9632 55.6918 50.5429 55.6918 49.0718C55.6918 48.021 55.5867 47.1804 54.9562 47.1804C54.4308 47.1804 54.2207 47.9159 54.2207 49.0718C54.1156 50.2277 54.3257 50.9632 54.9562 50.9632ZM51.5937 46.0245H52.6445V48.4413H53.1699C53.275 46.7601 54.1156 45.9194 54.9562 45.9194C55.7968 45.9194 56.7426 46.7601 56.7426 48.9667C56.7426 51.2784 55.6918 52.014 54.9562 52.014C54.1156 52.014 53.275 51.2784 53.1699 49.387H52.6445V51.9089H51.5937V46.0245Z" fill="white"/>
<path d="M58.8441 51.0682C59.2644 51.0682 59.4746 50.753 59.4746 50.2276C59.4746 49.8073 59.3695 49.3869 58.9492 49.3869H58.5289V51.0682H58.8441ZM58.739 48.4412C59.1593 48.4412 59.3695 48.2311 59.3695 47.7057C59.3695 47.1803 59.1593 46.9701 58.739 46.9701H58.5289V48.4412H58.739ZM57.4781 46.0244H59.0543C60 46.0244 60.4203 46.76 60.4203 47.6006C60.4203 48.126 60.2101 48.5463 59.7898 48.8615C60.3152 49.1768 60.5254 49.7022 60.5254 50.3327C60.5254 51.2784 60 52.119 59.0543 52.119H57.4781V46.0244Z" fill="white"/>
<path d="M62.9422 49.8073L62.627 47.6006L62.3117 49.8073H62.9422ZM61.9965 46.0244H63.0473L64.3082 52.119H63.2574L63.0473 50.858H61.9965L61.7863 52.119H60.7355L61.9965 46.0244Z" fill="white"/>
<path d="M64.8336 46.0244H65.8844V48.4412H67.0403V46.0244H68.0911V52.0139H67.0403V49.492H65.8844V52.0139H64.8336V46.0244Z" fill="white"/>
<path d="M69.0368 46.0244H70.0876V48.4412H71.2435V46.0244H72.2943V52.0139H71.2435V49.492H70.0876V52.0139H69.0368V46.0244Z" fill="white"/>
<path d="M75.1314 48.7566V47.0753H74.8161C74.3958 47.0753 74.1857 47.3905 74.1857 47.9159C74.1857 48.4413 74.3958 48.7566 74.7111 48.7566H75.1314ZM76.1822 52.014H75.1314V49.7023C74.8161 49.7023 74.5009 49.9124 74.1857 50.8581L73.8704 51.9089H72.8196L73.1349 50.8581C73.345 50.2277 73.6603 49.4921 73.8704 49.387C73.4501 49.0718 73.1349 48.4413 73.1349 47.8109C73.1349 46.8651 73.6603 45.9194 74.606 45.9194H76.0771V52.014H76.1822Z" fill="white"/>
<path d="M82.2767 46.0244L81.2259 51.5936C80.9107 53.3799 80.4903 53.6952 79.9649 53.6952C79.8599 53.6952 79.5446 53.5901 79.4396 53.5901V52.6444C79.5446 52.6444 79.6497 52.7495 79.7548 52.7495C79.965 52.7495 80.1751 52.6444 80.1751 52.2241L78.8091 46.2346H79.9649L80.5954 50.0174L81.1208 46.2346H82.2767V46.0244Z" fill="white"/>
<path d="M83.7478 46.0245V48.3362C84.063 48.3362 84.1681 48.2312 84.3783 47.8109L84.6935 46.8651C84.7986 46.4448 85.1138 45.9194 85.7443 45.9194C85.8494 45.9194 85.9544 45.9194 86.0595 45.9194L85.9544 46.9702C85.7443 46.9702 85.5341 47.0753 85.4291 47.3905L85.324 47.9159C85.2189 48.2312 85.1138 48.6515 84.9037 48.7566C85.324 49.1769 85.5341 49.9124 85.7443 50.648L86.0595 51.9089H84.9037L84.5884 50.8581C84.2732 49.8073 84.063 49.282 83.6427 49.282V51.9089H82.5919V45.9194H83.7478V46.0245Z" fill="white"/>
<path d="M87.951 48.5463C88.4764 48.5463 88.5815 48.2311 88.5815 47.8108C88.5815 47.3904 88.4764 47.0752 87.951 47.0752H87.6357V48.5463H87.951ZM86.69 46.0244H88.1611C89.2119 46.0244 89.6322 46.9701 89.6322 47.8108C89.6322 48.4412 89.4221 49.5971 88.0561 49.5971H87.6357V52.0139H86.585V46.0244H86.69Z" fill="white"/>
<path d="M92.0491 49.8073L91.7338 47.6006L91.4186 49.8073H92.0491ZM91.1034 46.0244H92.1541L93.4151 52.119H92.3643L92.1541 50.858H91.1034L90.8932 52.119H89.8424L91.1034 46.0244Z" fill="white"/>
<path d="M95.4116 44.8687C95.4116 45.1839 95.2014 45.3941 95.0963 45.3941C94.8862 45.3941 94.7811 45.1839 94.7811 44.8687C94.7811 44.5534 94.9912 44.3433 95.0963 44.3433C95.3065 44.3433 95.4116 44.5534 95.4116 44.8687ZM93.9405 46.0245H94.9912V52.014H93.9405V46.0245ZM94.1506 44.8687C94.1506 45.1839 93.9405 45.3941 93.8354 45.3941C93.6252 45.3941 93.5201 45.1839 93.5201 44.8687C93.5201 44.5534 93.7303 44.3433 93.8354 44.3433C93.9405 44.3433 94.1506 44.5534 94.1506 44.8687Z" fill="white"/>
<path d="M95.8318 46.0244H96.8826V48.4412H98.0385V46.0244H99.0893V52.0139H98.0385V49.492H96.8826V52.0139H95.8318V46.0244Z" fill="white"/>
<path d="M100.035 46.0244H101.086V49.3869L102.662 46.0244H103.292V52.0139H102.242V48.7565L100.666 52.119H100.035V46.0244Z" fill="white"/>
<path d="M31.2084 55.5867H30.0525V59.2644H29.6322V55.0613H31.2084V55.5867Z" fill="white"/>
<path d="M32.1541 56.8474H32.5745C32.8897 56.8474 32.9948 56.6372 32.9948 56.2169C32.9948 55.9017 32.8897 55.5864 32.5745 55.5864H32.1541V56.8474ZM32.5745 55.061C33.0999 55.061 33.4151 55.5864 33.4151 56.322C33.4151 56.9525 33.0999 57.4778 32.5745 57.4778H32.1541V59.2642H31.7338V55.061H32.5745Z" fill="white"/>
<path d="M35.3065 58.7389C35.937 58.7389 36.3573 58.0033 36.3573 57.1627C36.3573 56.217 35.937 55.5865 35.3065 55.5865C34.6761 55.5865 34.2557 56.217 34.2557 57.1627C34.2557 58.0033 34.6761 58.7389 35.3065 58.7389ZM35.3065 54.9561C36.1472 54.9561 36.7776 55.9018 36.7776 57.1627C36.7776 58.3186 36.2522 59.3694 35.3065 59.3694C34.4659 59.3694 33.9405 58.3186 33.9405 57.1627C33.8354 55.9018 34.3608 54.9561 35.3065 54.9561Z" fill="white"/>
<path d="M39.8249 59.2644H39.5097V55.9019H39.4046L38.669 57.5832H38.564L37.7233 55.9019V59.2644H37.4081V55.0613H37.7233L38.564 56.7425L39.5097 55.0613H39.8249V59.2644Z" fill="white"/>
<path d="M41.1909 57.4781H42.0315L41.6112 55.9019L41.1909 57.4781ZM42.9772 59.2644H42.5569L42.2417 58.0035H41.0858L40.7706 59.2644H40.3503L41.5061 55.0613H41.8214L42.9772 59.2644Z" fill="white"/>
<path d="M43.923 58.6338H45.1839L44.5534 55.7967L43.923 58.6338ZM46.0245 59.9998H45.6042V59.2643H43.5027V59.9998H43.0823V58.6338H43.5027L44.3433 54.9561H44.6585L45.6042 58.6338H46.0245V59.9998Z" fill="white"/>
<path d="M48.8616 55.9019C48.5464 55.5866 48.2312 55.4815 47.9159 55.4815C47.2855 55.4815 46.8651 56.2171 46.8651 57.0577C46.8651 58.0034 47.2855 58.6339 47.9159 58.6339C48.2312 58.6339 48.5464 58.4238 48.8616 58.1085V58.739C48.6515 58.9492 48.3362 59.1593 47.9159 59.1593C46.9702 59.1593 46.4448 57.8984 46.4448 57.0577C46.4448 55.7968 47.0753 54.8511 47.9159 54.8511C48.2312 54.8511 48.4413 54.9562 48.8616 55.1663V55.9019Z" fill="white"/>
<path d="M49.9124 58.634H50.4378C50.753 58.634 50.8581 58.3187 50.8581 58.0035C50.8581 57.5832 50.648 57.2679 50.4378 57.2679H49.9124V58.634ZM49.5972 59.2644V55.0613H50.0175V56.7425H50.4378C51.0683 56.7425 51.3835 57.2679 51.3835 58.0035C51.3835 58.634 51.0683 59.2644 50.4378 59.2644H49.5972Z" fill="white"/>
<path d="M52.3292 55.0613V56.7425H52.4343C52.7496 56.7425 52.8546 56.6375 53.0648 56.007C53.275 55.2714 53.4851 55.0613 53.8004 55.0613H53.9054V55.5867C53.5902 55.5867 53.4851 55.7968 53.38 56.3222C53.275 56.6375 53.1699 56.9527 53.0648 57.0578C53.275 57.1629 53.4851 57.4781 53.5902 58.0035L54.0105 59.2644H53.5902L53.1699 58.1086C52.9597 57.4781 52.6445 57.2679 52.4343 57.2679H52.3292V59.2644H51.9089V55.0613H52.3292Z" fill="white"/>
<path d="M55.3765 57.4781H56.2172L55.7968 55.9019L55.3765 57.4781ZM57.0578 59.2644H56.7425L56.4273 58.0035H55.2714L54.9562 59.2644H54.5359L55.6918 55.0613H56.007L57.0578 59.2644Z" fill="white"/>
<path d="M61.1559 55.9019C60.8406 55.5866 60.5254 55.4815 60.2102 55.4815C59.5797 55.4815 59.1594 56.2171 59.1594 57.0577C59.1594 58.0034 59.5797 58.6339 60.2102 58.6339C60.5254 58.6339 60.8406 58.4238 61.1559 58.1085V58.739C60.9457 58.9492 60.6305 59.1593 60.2102 59.1593C59.2645 59.1593 58.7391 57.8984 58.7391 57.0577C58.7391 55.7968 59.3695 54.8511 60.2102 54.8511C60.5254 54.8511 60.7356 54.9562 61.1559 55.1663V55.9019Z" fill="white"/>
<path d="M64.0981 59.2644H63.7828V55.5867H62.3117V59.2644H61.8914V55.0613H64.0981V59.2644Z" fill="white"/>
<path d="M65.359 54.9561H64.9387V59.1592H65.359V54.9561Z" fill="white"/>
<path d="M68.4063 59.2643H68.091L67.1453 55.7967L66.3047 59.2643H65.8844L67.0403 54.9561H67.2504L68.4063 59.2643Z" fill="white"/>
<path d="M69.352 55.0613V56.7425H69.4571C69.7723 56.7425 69.8774 56.6375 70.0876 56.007C70.2977 55.2714 70.5079 55.0613 70.8231 55.0613H70.9282V55.5867C70.613 55.5867 70.5079 55.7968 70.4028 56.3222C70.2977 56.6375 70.1926 56.9527 70.0876 57.0578C70.2977 57.1629 70.5079 57.4781 70.613 58.0035L71.0333 59.2644H70.613L70.1927 58.1086C69.9825 57.4781 69.6673 57.2679 69.4571 57.2679H69.352V59.2644H68.9317V55.0613H69.352Z" fill="white"/>
<path d="M72.3993 57.4781H73.2399L72.8196 55.9019L72.3993 57.4781ZM74.0806 59.2644H73.6603L73.345 58.0035H72.1892L71.8739 59.2644H71.4536L72.6095 55.0613H72.9247L74.0806 59.2644Z" fill="white"/>
<path d="M50.8582 22.8019C50.8582 26.2695 49.5972 32.154 49.282 32.154C48.9668 32.154 47.7058 26.2695 47.7058 22.8019C47.7058 19.9648 48.5464 20.175 49.282 20.175C49.9125 20.0699 50.8582 19.8597 50.8582 22.8019Z" fill="white"/>
<path d="M50.2277 18.0735C50.2277 18.8091 49.8073 19.4396 49.282 19.4396C48.7566 19.4396 48.3362 18.8091 48.3362 18.0735C48.3362 17.338 48.7566 16.7075 49.282 16.7075C49.8073 16.7075 50.2277 17.338 50.2277 18.0735Z" fill="white"/>
<path d="M55.7968 22.8019C55.7968 26.2695 54.5359 32.154 54.2206 32.154C53.9054 32.154 52.6445 26.2695 52.6445 22.8019C52.6445 19.9648 53.4851 20.175 54.2206 20.175C54.9562 20.0699 55.7968 19.8597 55.7968 22.8019Z" fill="white"/>
<path d="M55.1664 18.0735C55.1664 18.8091 54.7461 19.4396 54.2207 19.4396C53.6953 19.4396 53.275 18.8091 53.275 18.0735C53.275 17.338 53.6953 16.7075 54.2207 16.7075C54.7461 16.7075 55.1664 17.338 55.1664 18.0735Z" fill="white"/>
<path d="M75.4466 38.3537C75.4466 38.3537 71.8739 37.513 70.6129 34.6759C69.2469 31.8388 68.8266 29.422 68.1961 23.9579C68.1961 23.9579 67.986 18.4938 66.6199 13.9754C66.6199 13.9754 65.8844 11.0332 64.5184 8.61636C63.1523 6.19955 59.5797 1.89132 58.634 0.10498C58.3187 0.735453 57.8984 2.10148 58.4238 3.57258C58.9492 5.04368 61.8914 7.98589 63.3625 12.189C62.5219 10.823 59.4746 7.67065 57.373 3.88782C57.373 3.88782 56.3222 5.14876 57.1629 7.25034C57.8984 9.35192 61.7863 13.6601 62.4168 15.3414C62.4168 15.3414 62.9422 16.7074 63.3625 18.3887C63.3625 18.3887 61.7863 15.5516 60.8406 14.3957C59.8949 13.2398 58.5289 11.5586 56.9527 8.9316C55.9019 10.9281 57.2679 12.9246 57.373 13.1348C57.7933 13.9754 61.7863 19.3344 62.732 22.3817C59.7898 17.5481 59.2644 18.0735 56.9527 14.2906C56.7425 14.816 56.3222 15.9719 56.9527 17.5481C57.5832 19.1242 60.5254 22.3817 61.7863 24.9036C63.0473 27.4255 63.3625 29.0017 63.3625 29.0017C63.3625 29.0017 65.0438 25.2188 64.9387 19.6496C65.2539 22.1715 65.9895 28.161 62.1016 32.2591C58.9492 35.5165 55.3765 33.52 53.8003 33.6251C52.2241 33.7302 51.8038 35.7267 51.8038 35.7267C54.8511 36.8826 61.0508 39.7197 63.1523 41.6111C65.2539 43.6076 67.1453 44.133 69.4571 43.0822C71.6637 41.9263 75.4466 38.3537 75.4466 38.3537Z" fill="white"/>
<path d="M27.9509 38.3537C27.9509 38.3537 31.5236 37.513 32.7846 34.6759C34.1506 31.8388 34.5709 29.422 35.2014 23.9579C35.2014 23.9579 35.4115 18.4938 36.7775 13.9754C36.7775 13.9754 37.5131 11.0332 38.8791 8.61636C40.2452 6.19955 43.8178 1.89132 44.7635 0.10498C45.0788 0.735453 45.4991 2.10148 44.9737 3.57258C44.4483 5.04368 41.5061 7.98589 40.035 12.189C40.8756 10.823 43.9229 7.67065 46.0245 3.88782C46.0245 3.88782 47.0753 5.14876 46.2346 7.25034C45.4991 9.35192 41.6112 13.6601 40.9807 15.3414C40.9807 15.3414 40.4553 16.7074 40.035 18.3887C40.035 18.3887 41.6112 15.5516 42.5569 14.3957C43.5026 13.2398 44.8686 11.5586 46.4448 8.9316C47.4956 10.9281 46.1296 12.9246 46.0245 13.1348C45.6042 13.9754 41.6112 19.3344 40.6655 22.3817C43.6077 17.5481 44.1331 18.0735 46.4448 14.2906C46.655 14.816 47.0753 15.9719 46.4448 17.5481C45.8143 19.1242 42.8721 22.3817 41.6112 24.9036C40.3502 27.4255 40.035 29.0017 40.035 29.0017C40.035 29.0017 38.3537 25.2188 38.4588 19.6496C38.1436 22.1715 37.408 28.161 41.2959 32.2591C44.4483 35.5165 48.021 33.52 49.5972 33.6251C51.1733 33.7302 51.5937 35.7267 51.5937 35.7267C48.5464 36.8826 42.3467 39.7197 40.2451 41.6111C38.1436 43.6076 36.2522 44.133 33.9404 43.0822C31.8388 41.9263 27.9509 38.3537 27.9509 38.3537Z" fill="white"/>
<path d="M53.275 22.8019C53.275 26.2695 52.014 32.154 51.6988 32.154C51.3836 32.154 50.1226 26.2695 50.1226 22.8019C50.1226 19.9648 50.9633 20.175 51.6988 20.175C52.4344 20.0699 53.275 19.8597 53.275 22.8019Z" fill="white"/>
<path d="M52.6445 18.0735C52.6445 18.8091 52.2242 19.4396 51.6988 19.4396C51.1734 19.4396 50.7531 18.8091 50.7531 18.0735C50.7531 17.338 51.1734 16.7075 51.6988 16.7075C52.2242 16.7075 52.6445 17.338 52.6445 18.0735Z" fill="white"/>
</g>
<defs>
<clipPath id="clip0">
<rect width="103.292" height="60" fill="white"/>
</clipPath>
</defs>
</svg>
