<svg width="78" height="60" viewBox="0 0 78 60" fill="none" xmlns="http://www.w3.org/2000/svg">
<g clip-path="url(#clip0)">
<path d="M77.6484 24.4301L77.5915 24.5666C77.0112 26.0573 76.465 27.4796 75.7596 28.2875C75.1565 28.9816 74.3486 29.7098 73.7114 30.1081H0.785141C1.2858 29.0499 1.96853 28.1282 2.58298 27.3089C2.91296 26.8538 3.23157 26.4328 3.4819 26.0231C3.95981 25.2607 4.43771 24.6804 4.8701 24.1798C5.63248 23.2808 6.08763 22.7347 6.05349 21.7675C6.00798 20.0038 5.58696 18.479 5.0863 16.795C4.57426 15.0995 4.63115 13.7796 6.40623 12.5848C6.54278 12.4938 7.19136 12.2776 7.70341 12.1069C8.43164 11.8566 9.48987 11.3104 10.366 10.1612C10.4912 10.0019 11.2194 9.34191 11.447 9.19399C12.0956 8.7616 12.6645 8.34059 13.4724 8.09025C14.1779 7.96509 14.7924 8.2268 15.2703 8.36334C16.6129 9.14847 16.613 9.14848 17.9329 8.96642C18.7522 8.85263 19.708 9.48984 20.2314 10.3774C20.6183 11.0373 21.4603 10.9918 21.9496 10.6505C23.0874 9.85396 23.9067 10.3888 24.7943 11.0146C24.9877 11.1511 28.572 9.84258 31.3484 8.86401C32.1108 7.43029 33.59 6.82722 34.1362 6.64516C34.5572 6.49723 34.8758 6.49723 35.1261 6.48585C35.422 6.47448 35.6268 6.47448 36.0478 6.23552C36.6623 5.89416 37.857 4.84732 38.1187 4.6425C38.6763 4.19873 39.2908 3.76634 39.7914 3.42498C40.0417 3.2543 40.2466 3.10637 40.4059 2.99259C40.8496 2.6626 41.5096 1.94574 41.8965 1.4337C42.7385 0.318588 43.7057 -0.182076 44.6388 0.0341197C45.2646 0.182043 45.8108 0.546162 46.2887 0.864766C46.5845 1.06958 47.2445 1.41094 47.3241 1.4337C48.132 1.74093 49.3382 2.21883 49.6226 3.51601C49.8616 4.63112 49.8502 5.13179 49.5316 5.82589C49.5088 5.88278 48.9172 7.20271 49.4292 7.45305C49.9981 7.74889 50.3964 7.64648 50.9426 7.50994C51.1019 7.4758 51.5456 7.37339 51.5456 7.37339C52.2966 7.22547 53.4345 7.00927 54.3903 8.10163C54.7886 8.55678 55.073 9.02331 55.312 9.44432C55.551 9.85396 56.1654 10.6391 56.1654 10.6391C56.7685 11.2649 57.3829 11.9135 57.9974 11.8225C58.8508 11.6859 59.4994 11.3673 60.3755 10.9349L60.4552 10.9008C61.2517 10.5139 61.9117 10.4798 62.4351 10.457C62.6285 10.4456 63.1292 10.3774 63.2088 10.366C63.7209 10.2636 64.3467 10.1384 65.0067 10.7074C65.257 10.9236 65.4504 11.2422 65.6553 11.5721C65.8942 11.959 66.1901 12.4369 66.4631 12.4938C66.7362 12.5507 66.8159 12.4938 67.089 12.289C67.2597 12.1525 67.4872 11.9932 67.7831 11.8794C67.8741 11.8452 67.9651 11.7997 68.0448 11.7656C68.6023 11.5152 69.5468 11.0829 70.4116 12.05C70.6619 12.3231 70.7984 12.4824 70.9008 12.5166C71.0374 12.5735 71.4129 12.5393 71.8225 12.5166C73.4156 12.3914 75.1679 12.38 76.1351 13.2676C77.1933 14.2461 77.6484 15.2247 77.6939 16.6471C77.7395 18.0466 77.6939 18.7635 77.3526 19.5145C77.1364 19.9924 77.0112 20.6865 77.2957 21.062C77.876 21.8926 78.3198 22.7233 77.6484 24.4301Z" fill="#5AAFFF"/>
<path d="M72.619 30.8249C72.5621 31.4166 72.6418 31.7239 72.7328 32.0538C72.8125 32.3383 72.8921 32.6683 72.8466 33.1007C72.7783 33.8176 72.4142 34.1703 72.0956 34.4775C71.9363 34.6368 71.7656 34.7961 71.5836 35.0351C71.4129 35.2513 71.2422 35.5016 71.0488 35.7519C70.5709 36.4119 70.0247 37.1515 69.4557 37.7887C69.2851 37.9708 69.1144 38.1756 68.9551 38.369C68.352 39.0745 67.7262 39.8141 66.9183 40.1327C66.52 40.2921 66.099 40.3376 65.6894 40.3831C65.0977 40.4514 64.5287 40.5196 64.0167 40.8951L63.755 41.0886C62.7764 41.8054 61.6727 42.6247 60.8534 43.6943C60.2503 44.4908 59.2263 45.8221 59.3969 46.3C59.579 46.8348 60.3641 47.6086 61.3541 47.6541C61.6386 47.6655 61.9572 47.6768 62.2644 47.6768C63.4705 47.6882 64.6084 47.6996 65.0067 48.4847C65.3935 49.2357 65.4732 50.3622 65.2001 51.1132C64.9384 51.8301 64.0395 52.308 63.1747 52.7631C63.0268 52.8428 62.8902 52.9111 62.7537 52.9793C62.492 53.1273 62.2075 53.241 61.9458 53.3548C61.4337 53.571 60.9444 53.7758 60.7738 54.1172C60.6827 54.2879 60.6372 54.4472 60.5917 54.6065C60.421 55.1868 60.2162 55.6533 59.2945 56.2905C59.1466 56.393 58.9987 56.4954 58.8508 56.5864C58.0087 57.1553 57.3488 57.6105 57.2122 58.1111C57.1667 58.2704 57.1326 58.4184 57.0984 58.5663C56.9619 59.1238 56.8026 59.8179 55.9151 59.9772C55.8126 60 55.7102 60 55.5964 60C54.7317 60 53.6848 59.4652 52.9907 58.6346L52.968 58.6118C52.9566 58.6004 52.9452 58.5777 52.9338 58.5663C52.9224 58.5663 52.9111 58.5663 52.8997 58.5549C52.8769 58.5094 52.8428 58.4753 52.82 58.4297C52.4104 57.9405 51.8415 57.2691 51.3749 56.8026C51.0905 56.5636 50.7832 56.3474 50.476 56.154C50.3622 56.1085 50.2484 56.063 50.1347 56.0175C49.4406 55.7444 48.6554 55.4485 48.3596 54.8113L48.3482 54.7886C47.9841 53.992 47.7451 53.2183 48.6099 51.8984C49.1561 51.0677 49.5657 50.4533 50.0891 50.055C50.1574 49.6909 49.9867 49.3268 49.6909 49.0992C49.2926 49.0878 48.5758 49.1447 48.1889 49.1675C47.9499 49.1902 47.7224 49.2016 47.5517 49.213C45.9132 49.2926 44.9004 48.9285 44.5249 48.1434C44.4339 47.9386 44.3543 47.6996 44.2519 47.4151C44.2405 47.381 44.2291 47.3355 44.2063 47.2786C44.1267 47.0965 44.047 46.9031 43.956 46.6869C43.7967 46.2659 43.6147 45.97 43.4098 45.7994C43.3985 45.7994 43.3757 45.788 43.3643 45.788C42.784 45.7652 42.3402 45.8449 41.942 46.0611C41.8509 46.1293 41.7713 46.209 41.6803 46.2886C41.521 46.4479 41.3389 46.5731 41.1455 46.7097C40.9407 46.9145 40.7586 47.0965 40.5879 47.2672C40.1897 47.6541 39.871 47.9613 39.5866 48.3823C39.3818 48.6782 39.2225 48.9399 39.0859 49.2016C39.0745 49.395 39.0745 49.5885 39.0745 49.7819C38.9494 50.3736 38.6194 51.648 38.5853 51.6935C38.4032 52.2397 38.0618 52.7745 37.3905 53.1386C36.9922 53.3548 36.6395 53.5596 36.3209 53.7645C35.9909 54.0944 35.6609 54.4472 35.2968 54.7317C35.2172 54.8568 35.1375 54.9934 35.0465 55.1299C34.6368 55.8126 34.1475 56.5636 32.93 57.0074C32.2359 57.2577 30.9501 57.5081 29.9943 57.5081C29.5733 57.5081 29.2092 57.4512 28.993 57.3146C28.3558 56.9278 27.7641 56.0402 27.9689 55.0161C28.0941 54.3903 28.5378 53.9238 28.9133 53.5141C29.0385 53.3776 29.2661 53.0704 29.2547 53.059C29.6757 52.4787 29.9374 51.8187 30.1536 51.136C30.3357 50.7719 30.3015 50.6581 30.5519 50.2371C30.7453 49.9867 31.0412 49.3723 31.5873 48.7578C32.3497 47.7224 33.8972 48.0637 34.0451 46.6186C34.5458 41.6234 22.4388 39.1314 21.9723 36.1957C21.1303 36.7874 20.2086 37.9935 19.5486 38.4828C17.7849 40.0417 16.2943 40.9179 15.0768 41.373C14.1893 41.8965 13.2562 42.1013 12.1866 41.7599C12.0387 41.7371 11.8908 41.703 11.7656 41.6689C11.0601 41.4641 10.8212 41.4413 10.1726 41.5096L10.1612 41.521C10.1612 41.521 10.1612 41.5096 10.1498 41.5096C9.95638 41.5323 9.74019 41.5665 9.45572 41.6006C9.28504 41.6234 9.0916 41.6461 8.88678 41.6803C8.70472 41.703 8.53404 41.7258 8.38612 41.7485C7.83994 41.8282 7.47582 41.8737 7.14584 41.8737C6.62242 41.8737 6.21278 41.7485 5.38213 41.4299C5.2911 41.3958 4.93836 41.3389 4.67665 41.2934C3.77773 41.1341 3.10639 41.0089 2.70813 40.7017C2.28712 40.3831 2.10506 39.8938 1.923 39.4159C1.82059 39.1428 1.71818 38.8697 1.58164 38.6535C0.944432 37.6636 0.477904 36.4005 0.170678 34.9099C-0.216198 32.9983 0.147921 31.428 0.796508 30.0967H73.7455C73.6886 30.1308 73.6431 30.165 73.5976 30.1877C73.3245 30.347 73.0628 30.3926 72.8694 30.4153C72.8125 30.4267 72.7556 30.4381 72.7101 30.4381C72.6645 30.5063 72.6304 30.6087 72.619 30.8249Z" fill="#FFF500"/>
<path fill-rule="evenodd" clip-rule="evenodd" d="M44.9915 34.2613C44.9915 34.2386 44.9232 33.5559 44.9118 33.5559C44.6956 32.5204 43.7967 32.2815 42.3175 32.418C41.0544 32.5318 40.7131 32.9528 40.5424 33.2714C40.4058 33.1917 40.2693 33.1121 40.1441 32.9983C39.8938 32.8049 39.7117 32.6456 39.5411 33.0552C39.2225 35.5471 39.3362 38.0618 39.3931 40.5652C39.4273 41.8396 39.3021 43.1595 40.0872 44.3087C40.2693 44.6046 40.3945 44.6274 40.7472 44.5705C40.9293 44.5363 41.0317 44.4567 41.0999 44.377C41.4299 44.1267 41.6347 43.7739 41.7599 43.3529C41.7485 43.0798 41.7372 42.8068 41.7258 42.5337C41.5437 41.0089 42.0216 40.5538 43.444 40.9179C44.1836 41.1 44.4908 40.6789 44.6729 40.0645C44.9459 39.1087 45.037 38.1415 45.0142 37.1515C44.9801 36.1844 44.9915 35.2172 44.9915 34.2613ZM42.6816 36.7874C42.6816 37.3905 42.693 37.9936 42.6702 38.5966C42.6588 38.9039 42.545 39.2452 42.1809 39.2452C41.8623 39.2566 41.6916 38.9152 41.6916 38.6763C41.6575 37.436 41.6575 36.2071 41.6803 34.9668C41.6916 34.671 41.9192 34.4548 42.2378 34.4775C42.5564 34.5003 42.693 34.7165 42.6816 35.0465C42.6702 35.6382 42.6816 36.2185 42.6816 36.7874Z" fill="#124B95"/>
<path fill-rule="evenodd" clip-rule="evenodd" d="M49.1788 35.6495C48.7009 35.7519 48.2117 35.8088 47.7224 35.8657C47.4834 35.8885 47.1534 35.8999 47.1079 35.604C47.0624 35.3082 47.1762 35.0009 47.5289 34.8872C47.9727 34.7506 48.4392 34.6596 48.9058 34.6596C49.6226 34.6596 50.3395 34.671 51.0563 34.6482C51.4205 34.6368 51.8187 34.5686 51.887 34.1362C51.9552 33.7152 51.8073 33.3624 51.3863 33.1121C50.5784 32.6114 49.7819 32.7024 48.9058 32.6797C48.6099 32.6683 47.1421 32.6797 47.1193 32.7252C46.0838 32.839 45.8563 33.3965 45.7197 33.8631C45.549 34.5799 45.4808 35.3196 45.4921 36.0705C45.5263 37.5612 46.5959 38.3577 48.0296 37.9139C48.6099 37.7432 49.0878 37.6522 49.6681 37.4815C50.0436 37.3791 50.3395 37.4815 50.4988 37.8001C50.6922 38.1642 50.4646 38.517 50.2029 38.7104C49.543 39.1883 48.9399 39.0404 48.2003 38.8583C47.6427 38.7218 47.0965 38.6308 46.5162 38.7104C45.9587 38.7901 45.4466 38.9607 45.5263 39.5411C45.6059 40.0872 45.7539 40.7927 46.4593 40.8382C47.8817 40.9406 49.3154 41.0544 50.7263 40.7244C51.6366 40.5083 52.0235 39.7459 52.1828 38.9949C52.6835 36.7647 51.6708 35.1147 49.1788 35.6495Z" fill="#124B95"/>
<path fill-rule="evenodd" clip-rule="evenodd" d="M38.517 33.5559C38.4942 32.8959 37.8912 32.327 36.685 32.418C35.4902 32.509 34.7279 32.8276 34.5344 32.9528C34.1931 32.8276 33.2373 32.4066 32.2587 32.4066C31.576 32.4066 30.8022 32.5318 30.7681 32.5318C30.1878 32.7366 29.8578 33.1235 29.6416 33.7265C29.4254 34.3296 29.4823 37.0605 29.505 37.3108V38.938C29.505 38.938 29.5619 39.7345 29.6643 39.9507C29.9943 40.6562 30.2446 41.1796 31.2232 41.0658C31.9401 40.9861 32.0425 40.1214 32.0652 39.5069C32.0766 39.3135 32.0766 39.1314 32.088 38.938V38.7218C32.0994 38.096 32.088 37.4701 32.088 36.8329V35.4106C32.0994 35.2854 32.1108 35.1716 32.1449 35.0465C32.2132 34.8075 32.2473 34.4434 32.6228 34.4889C32.9869 34.5344 33.1007 34.8189 33.1007 35.1489C33.1007 36.5029 33.1121 37.8456 33.0893 39.1997C33.0893 39.6321 33.1121 40.2352 33.3966 40.5424C33.6696 40.8496 33.8403 41.1568 34.4775 40.9406C34.9327 40.7927 35.2058 40.3262 35.1944 39.7459C35.1603 38.3463 35.183 36.9353 35.1716 35.5244C35.1716 35.1603 35.2058 34.8075 35.3651 34.4775C35.4561 34.2841 35.604 34.1817 35.8202 34.1817C36.0592 34.1817 36.2299 34.2727 36.2754 34.4661C36.3778 34.8644 36.3892 35.0806 36.3778 35.5016C36.3664 36.7988 36.3778 38.3577 36.3892 39.6548C36.3892 40.3603 36.5598 40.9065 37.2539 41.0544C37.7546 41.1454 38.1642 40.77 38.1756 40.77C38.187 40.7472 38.1984 40.7131 38.2098 40.6903V40.6789C38.5397 39.9393 38.4601 39.1428 38.4601 38.369C38.4715 36.9808 38.4715 35.5926 38.4828 34.2044C38.517 34.011 38.5284 33.7834 38.517 33.5559Z" fill="#124B95"/>
<path fill-rule="evenodd" clip-rule="evenodd" d="M55.4257 20.971V14.7127C55.4257 12.4255 53.8214 10.8667 53.0931 10.4115C52.3649 9.95637 50.3053 10.3205 49.065 10.1839C47.8248 10.0474 46.3683 10.1839 46.3683 10.1839C46.3683 10.1839 45.9473 10.2977 46.391 9.95637C45.0484 8.7616 43.7057 8.45438 43.7057 8.45438C43.6146 8.42024 43.4895 8.39748 43.296 8.39748C42.6133 8.39748 41.282 8.53403 39.9507 8.39748C38.6194 8.26094 37.527 7.62373 36.8784 7.94233C36.2412 8.26094 35.8657 8.39748 35.5926 8.53403C35.3196 8.67057 34.8644 8.57954 33.8062 9.30778C32.748 10.036 31.9287 10.1043 31.337 10.1157C30.7453 10.127 30.3243 10.7756 29.8236 10.9122C29.323 11.0487 27.8096 11.9704 27.2179 13.1538C26.6262 14.3486 25.5225 15.0768 25.6135 18.3766C25.7045 21.6764 25.6021 23.1329 25.6135 23.645C25.6135 24.1456 25.6135 24.4187 26.4897 25.2039C27.3545 25.9776 28.4127 27.2179 29.0044 27.2634C29.0157 27.4341 29.084 27.5706 29.2319 27.673C29.8692 28.1282 31.3029 27.7185 31.3029 27.7185C31.3029 27.7185 32.0311 28.6516 33.078 28.5492C34.1362 28.4468 35.001 28.1965 35.4106 27.8437C35.4675 27.9006 35.5358 27.9689 35.5926 28.0144C36.3209 28.6857 36.9695 28.6744 37.7432 28.2647C38.5397 27.8437 38.8242 27.6389 39.2566 27.2862C39.3135 27.2975 39.3476 27.2975 39.3476 27.2975C39.5752 27.7072 40.4058 28.3558 41.4072 28.5833C42.3288 28.7881 43.4326 28.1965 44.2177 27.6048L44.2518 27.6617C44.2518 27.6617 44.7525 28.572 46.391 28.572C48.0182 28.572 48.5644 27.8892 49.2016 27.3772C49.8388 26.8765 50.5784 26.3645 51.9894 25.8183C53.4117 25.2721 55.1982 24.0774 55.4257 23.8953C55.6533 23.7246 55.4257 21.6196 55.4257 20.971Z" fill="white"/>
<path d="M55.6533 21.813C55.6306 21.4603 55.6078 21.153 55.6078 20.971V14.7127C55.6078 12.38 54.0262 10.7756 53.1842 10.2522C52.6835 9.93362 51.7163 9.96776 50.6922 10.0019C50.1233 10.0247 49.5316 10.0474 49.0764 9.99052C48.1775 9.88811 47.1762 9.93362 46.6641 9.96776L46.6755 9.95638L46.5048 9.80846C45.1622 8.62507 43.8536 8.28371 43.7512 8.26095C43.626 8.22681 43.4781 8.20406 43.2847 8.20406C43.0912 8.20406 42.8409 8.21544 42.5564 8.22681C41.8623 8.26095 40.9065 8.30646 39.9621 8.20406C39.4387 8.14716 38.9494 8.01062 38.5056 7.89683C37.8229 7.70339 37.2312 7.54409 36.7874 7.77167C36.4005 7.9651 36.1161 8.09027 35.8999 8.19268C35.752 8.26095 35.6268 8.31784 35.513 8.37474C35.4561 8.39749 35.3765 8.42025 35.274 8.44301C34.9668 8.51128 34.4889 8.61369 33.7038 9.15987C32.7252 9.84259 31.9628 9.92224 31.337 9.93362C30.9388 9.945 30.6202 10.184 30.3357 10.4001C30.1422 10.5481 29.9602 10.6846 29.7781 10.7301C29.2775 10.8667 27.6844 11.7884 27.0472 13.0741C26.9221 13.3245 26.7741 13.5634 26.6148 13.8024C26.0231 14.7127 25.3518 15.7481 25.4315 18.388C25.4997 20.8686 25.4542 22.3137 25.4315 23.0874C25.4201 23.3378 25.4201 23.5312 25.4201 23.6564C25.4315 24.2367 25.4656 24.5553 26.3531 25.3404C26.5921 25.5452 26.8424 25.7956 27.0814 26.0345C27.73 26.6717 28.3558 27.2748 28.8337 27.4113C28.8678 27.5706 28.9589 27.7072 29.1182 27.821C29.4481 28.0599 29.7554 28.2078 30.1536 28.2078C30.4495 28.2078 30.7908 28.1282 31.246 27.9461C31.4736 28.1851 32.0766 28.754 32.9187 28.754C32.9755 28.754 33.0324 28.754 33.1007 28.7426C34.102 28.6402 34.9327 28.4127 35.3992 28.0941C35.422 28.1168 35.4447 28.1396 35.4789 28.1623C35.9113 28.5492 36.3209 28.7426 36.776 28.7426C37.106 28.7426 37.4588 28.6402 37.8456 28.4354C38.5966 28.0372 38.8925 27.8323 39.2794 27.5251C39.6207 28.003 40.4514 28.5606 41.3844 28.7768C41.5323 28.8109 41.6803 28.8223 41.8282 28.8223C42.7044 28.8223 43.6033 28.2989 44.1836 27.8892C44.3884 28.1623 45.0142 28.7768 46.4024 28.7768C47.8703 28.7768 48.5075 28.242 49.0651 27.7641C49.1561 27.6844 49.2471 27.6162 49.3381 27.5479C49.9071 27.1041 50.6353 26.5807 52.0804 26.0231C53.5483 25.4542 55.3461 24.2481 55.5623 24.066C55.7444 23.8953 55.7557 23.3491 55.6533 21.813ZM45.458 10.0133C44.9346 10.0019 44.2177 9.945 44.0698 9.61502C44.0129 9.28503 44.047 8.89816 44.0698 8.76161C44.5249 8.93229 45.4466 9.31917 46.0952 9.945C46.0042 9.97914 45.6401 10.0133 45.458 10.0133ZM26.6148 25.0446C25.807 24.3277 25.807 24.1115 25.807 23.6222C25.807 23.4971 25.807 23.3264 25.8183 23.076C25.8411 22.3023 25.8866 20.8458 25.8183 18.3539C25.7501 15.8392 26.3873 14.8606 26.9448 13.9844C27.1155 13.7341 27.2634 13.4838 27.4 13.2221C27.9575 12.0956 29.4026 11.208 29.8919 11.0715C30.1422 11.0032 30.3584 10.8325 30.5746 10.6732C30.8363 10.4798 31.0753 10.2864 31.3598 10.2864C31.8604 10.275 32.7821 10.2522 33.9314 9.44434C34.6596 8.94367 35.0806 8.84126 35.3651 8.78437C35.4902 8.76161 35.5927 8.72748 35.6951 8.68196C35.7975 8.62507 35.9226 8.57955 36.0706 8.51128C36.2981 8.40887 36.594 8.28371 36.9809 8.09027C37.2995 7.93097 37.8229 8.07889 38.4373 8.24957C38.8925 8.37474 39.3931 8.51128 39.9507 8.56818C40.9179 8.67058 41.8851 8.62507 42.6019 8.59093C42.8864 8.57955 43.1254 8.56818 43.3188 8.56818C43.6033 8.56818 43.6943 8.61369 43.7284 8.63645C43.7171 8.72748 43.6374 9.2509 43.7284 9.69467V9.70605C43.7284 9.71743 43.7398 9.7288 43.7398 9.75156C43.9105 10.275 45.0142 10.2977 45.2418 10.2977C45.2646 10.2977 45.367 10.2864 45.3897 10.2864C45.0711 10.4912 43.774 11.2877 42.8409 11.6404C41.8168 12.0273 40.7472 11.6404 40.7358 11.6404L40.6562 11.6063L40.5765 11.6518C40.2579 11.8339 39.3931 12.3345 39.1087 12.4142C38.9152 12.4597 38.5625 12.6304 38.1984 12.8124C38.3349 12.4369 38.278 12.0387 38.2325 11.7997C38.2098 11.6973 38.1642 11.5949 38.0618 11.6063C37.9594 11.6291 37.9708 11.6973 37.9822 11.7997C37.9936 11.8339 38.0391 12.5962 37.6067 13.1083C37.3791 13.3472 36.9126 13.5748 36.9126 13.5748L37.1629 13.7569C38.0505 14.3713 39.1428 15.1792 39.5411 15.4523C39.8028 15.6344 39.8824 15.7026 39.9279 15.7823C40.0076 15.953 39.9393 16.1692 39.7573 16.3512C39.3362 16.795 37.9708 17.7167 37.1857 18.1035C37.1743 18.1035 37.1743 18.1149 37.1629 18.1149C36.9126 18.2742 36.5371 18.1263 36.2526 17.8987C36.2299 17.8873 36.2185 17.876 36.1957 17.8532C35.9226 17.6143 35.0578 16.9884 34.7961 16.795L34.7165 16.4422C34.7165 16.3398 34.7848 16.1464 34.6824 16.1464C34.5799 16.1464 34.4889 16.2943 34.4889 16.4081L34.4206 16.7267C34.1703 16.7267 33.9883 16.8633 33.9086 16.9657C33.8403 17.0453 33.7834 17.1022 33.8631 17.1705C33.9427 17.2388 34.0224 17.2046 34.0907 17.125C34.102 17.1136 34.3979 16.9657 34.762 17.2274C34.762 17.2274 34.7734 17.2274 34.7734 17.2388C35.0237 17.4208 35.2399 17.5915 35.4333 17.7394C35.6382 17.8987 35.8202 18.0466 35.9795 18.1491C35.9909 18.1491 35.9909 18.1604 36.0023 18.1604C36.0933 18.2401 36.1616 18.3766 36.1616 18.5359C36.1616 18.6156 36.1388 18.7749 35.9909 18.8887C35.8885 18.9569 35.7747 19.0366 35.6723 19.1049C35.2285 19.4121 34.6027 19.8559 34.1476 20.3224L34.1362 20.3338C34.0224 20.4476 33.9086 20.55 33.8062 20.6638C33.4648 20.9824 33.2941 21.0848 33.1576 20.971C33.0666 20.8913 32.9414 20.8003 32.8049 20.6979C32.5659 20.5158 32.3383 20.3679 32.1108 20.22C31.997 20.1517 31.8946 20.0834 31.7922 20.0038C31.758 19.9241 31.7011 19.6055 31.7694 19.3666C31.7922 19.2642 31.8149 19.1845 31.7125 19.1618C31.6101 19.139 31.5077 19.1959 31.4849 19.2983C31.4394 19.4576 31.3939 19.6852 31.3939 19.89C31.1663 19.9014 30.9729 20.0607 30.8819 20.1631C30.8136 20.2427 30.7795 20.2996 30.8591 20.3679C30.9388 20.4362 30.9956 20.402 31.0639 20.3224C31.0753 20.311 31.3711 20.1745 31.5646 20.2996C31.6329 20.3451 31.758 20.4362 31.9287 20.55C32.1335 20.6865 32.3839 20.8458 32.5887 21.0051C32.8049 21.1644 32.93 21.2896 32.9414 21.4261C32.9414 21.4716 32.9414 21.5741 32.9073 21.6196C32.9073 21.6196 32.5318 22.0633 32.3611 22.234C31.758 22.8485 31.1777 23.3605 30.7112 23.8726C30.6657 23.9294 30.5746 23.9863 30.495 23.9863C30.4381 23.9863 30.3698 23.9522 30.3015 23.8726C29.9943 23.5198 29.6871 23.1898 29.7554 22.8485C29.7781 22.7461 29.835 22.7005 29.7326 22.6778C29.6302 22.655 29.5278 22.7233 29.5164 22.8257C29.4709 23.0305 29.4937 23.2126 29.5506 23.3946C29.3571 23.3491 29.1637 23.3264 29.0726 23.315C28.9702 23.3036 28.8792 23.3833 28.8678 23.4857C28.8564 23.5881 28.9702 23.5653 29.0726 23.5767C29.3912 23.5995 29.7554 23.8043 29.835 23.8953C30.0967 24.2139 30.165 24.4529 30.0512 24.6463C29.9488 24.7829 29.8692 24.908 29.8123 25.0104C29.7895 25.0446 29.7667 25.0901 29.744 25.1356C29.6188 25.3404 29.4937 25.568 29.3685 25.8183C29.1978 26.1369 29.0271 26.4783 28.9475 26.7855C28.9475 26.7969 28.902 26.9562 28.902 27.0131C28.5151 26.8424 27.9462 26.2735 27.4227 25.7614C27.1041 25.5111 26.8538 25.2608 26.6148 25.0446ZM33.0666 28.3558C32.4066 28.424 31.8832 28.0144 31.6215 27.7755C31.758 27.7072 31.9059 27.6389 32.0652 27.5593C32.6456 27.2634 33.3169 26.8993 33.9883 26.5352C34.1817 26.7741 34.6368 27.3317 35.1261 27.8096C34.7051 28.0713 33.9541 28.2647 33.0666 28.3558ZM55.3006 23.7701C55.0389 23.975 53.3093 25.1242 51.9325 25.659C50.4305 26.2393 49.6795 26.7855 49.0878 27.2407C48.9968 27.3089 48.9058 27.3886 48.8147 27.4682C48.2799 27.9234 47.7224 28.3899 46.4024 28.3899C45.1622 28.3899 44.6387 27.8437 44.4794 27.6503C44.5136 27.6275 44.5363 27.6048 44.5705 27.582C45.3442 26.9448 46.6755 25.6931 46.6869 25.6818C46.7666 25.6135 46.8121 25.5566 46.7438 25.4883C46.6755 25.4087 46.6073 25.4542 46.5276 25.5225C46.5162 25.5338 45.0939 26.6717 44.3315 27.2975C43.9446 27.6162 42.5792 28.6516 41.4754 28.4013C40.5765 28.1965 39.8369 27.6503 39.5866 27.2862C39.598 27.2748 39.6093 27.2634 39.6321 27.252C39.7231 27.1838 39.8142 27.1041 39.9166 27.0245C40.952 26.1711 42.0102 25.3632 42.0216 25.3518C42.1013 25.2835 42.124 25.1697 42.0558 25.0901C41.9875 25.0104 41.9192 25.0559 41.8396 25.1242C41.8282 25.1356 40.7245 25.8866 39.6776 26.74C39.5752 26.831 39.4842 26.8993 39.3931 26.9789C38.8242 27.4569 38.608 27.6389 37.6977 28.1168C36.924 28.5264 36.3892 28.4582 35.7633 27.8892C35.2285 27.4 34.6255 26.6831 34.3637 26.3645C35.3309 25.8297 36.2868 25.2721 36.9809 24.817C38.1642 24.0432 40.7586 21.9609 40.7813 21.9495C40.861 21.8813 40.8951 21.8358 40.8269 21.7561C40.7586 21.6765 40.6448 21.6537 40.5652 21.722C40.5424 21.7447 37.9367 23.736 36.776 24.5098C36.0478 24.9877 35.0237 25.5794 33.9996 26.1483C33.2828 26.5466 32.5659 26.9221 31.9401 27.252C30.3926 28.0485 29.9488 27.9461 29.3912 27.5365C29.2319 27.4227 29.2206 27.2065 29.2775 26.9448C29.3799 26.6376 29.5278 26.3304 29.6757 26.0345C29.744 25.9093 29.8123 25.7842 29.8805 25.6704C29.9374 25.5566 30.0057 25.4542 30.0626 25.3518C30.165 25.1697 30.2674 25.0104 30.3471 24.8853C30.5064 24.6691 30.7339 24.4074 30.9956 24.1229C31.2232 23.8839 32.7593 22.3137 33.1121 21.9495C33.4535 21.6082 33.7721 21.2782 34.0679 20.9596C34.1703 20.8572 34.2841 20.7434 34.4093 20.6296C35.6268 19.4917 37.5612 18.3425 38.5397 17.7736C38.7218 17.6598 38.8811 17.5687 38.9949 17.5005C39.5638 17.1477 40.3603 16.4764 41.0544 15.8278C41.282 15.6116 41.703 15.202 41.8168 15.0882C42.454 14.451 43.9674 14.0641 43.9788 14.0641C44.0812 14.0413 44.1836 14.0186 44.1608 13.9162C44.1381 13.8138 44.047 13.8365 43.9446 13.8479C43.7967 13.8707 43.2505 13.9162 42.6475 14.1551C42.6816 14.1096 42.7385 13.9162 42.7385 13.9162C42.7385 13.7796 42.7385 13.7796 42.6588 13.7227C42.5792 13.6545 42.5109 13.7569 42.4426 13.8365C42.4426 13.8365 42.033 14.3486 41.5437 14.8265C41.3503 15.0199 41.1113 15.2475 40.8382 15.5092C40.6789 15.5888 40.6107 15.5775 40.4514 15.5206C39.8142 15.3044 39.5183 14.9972 39.5183 14.9972C39.1542 14.7127 38.5397 14.2689 37.6294 13.6431C37.7091 13.5862 37.7887 13.5179 37.8456 13.4496C37.9367 13.4041 38.0277 13.3586 38.1187 13.3131C38.517 13.1083 39.0176 12.858 39.2111 12.8124C39.5524 12.7328 40.4286 12.2207 40.7017 12.0614C40.9975 12.1525 41.9989 12.4028 42.9774 12.0273C44.0243 11.6404 45.4352 10.7415 45.6401 10.605L46.4252 10.3888C46.5845 10.3774 47.9386 10.2636 49.0764 10.3888C49.5543 10.4457 50.1688 10.4229 50.7491 10.4001C51.6708 10.366 52.6266 10.3319 53.0248 10.5936C53.6507 10.9805 55.2665 12.4938 55.2665 14.7354V20.9937C55.2665 21.1872 55.2892 21.4944 55.312 21.8585C55.3234 22.4388 55.3916 23.5653 55.3006 23.7701Z" fill="#124B95"/>
</g>
<defs>
<clipPath id="clip0">
<rect width="77.9898" height="60" fill="white"/>
</clipPath>
</defs>
</svg>
