<svg width="105" height="60" viewBox="0 0 105 60" fill="none" xmlns="http://www.w3.org/2000/svg">
<g clip-path="url(#clip0)">
<path d="M2.77612 50.9632C3.30151 50.9632 3.51167 50.5429 3.51167 49.0718C3.51167 48.021 3.40659 47.1804 2.77612 47.1804C2.25072 47.1804 2.04056 47.9159 2.04056 49.0718C2.04056 50.2277 2.25072 50.9632 2.77612 50.9632ZM2.77612 45.9194C3.61675 45.9194 4.56246 46.7601 4.56246 48.9667C4.56246 51.2785 3.51167 52.014 2.77612 52.014C1.93549 52.014 0.989777 51.1734 0.989777 48.8616C0.989777 46.9702 1.93549 45.9194 2.77612 45.9194Z" fill="#27348B"/>
<path d="M6.66403 48.5464C7.18942 48.5464 7.2945 48.2312 7.2945 47.8109C7.2945 47.3905 7.18942 47.0753 6.66403 47.0753H6.34879V48.5464H6.66403ZM5.298 46.0245H6.76911C7.8199 46.0245 8.24021 46.9702 8.24021 47.8109C8.24021 48.4413 8.03005 49.5972 6.66403 49.5972H6.34879V52.014H5.298V46.0245Z" fill="#27348B"/>
<path d="M11.4976 50.4378C11.8129 50.4378 12.2332 49.8074 12.2332 48.9667C12.2332 48.1261 11.8129 47.4956 11.4976 47.4956V50.4378ZM10.4469 47.6007C10.1316 47.6007 9.71131 48.1261 9.71131 49.0718C9.81639 49.8074 10.1316 50.4378 10.4469 50.4378V47.6007ZM10.4469 46.0245H11.4976V46.5499C12.4434 46.5499 13.284 47.6007 13.284 49.0718C13.284 50.5429 12.4434 51.5937 11.4976 51.5937V52.1191H10.4469V51.4886C9.50115 51.4886 8.66052 50.4378 8.66052 48.9667C8.66052 47.4956 9.50115 46.4448 10.4469 46.4448V46.0245Z" fill="#27348B"/>
<path d="M15.5957 49.8074L15.2805 47.6007L14.9653 49.8074H15.5957ZM14.65 46.0245H15.7008L16.9617 52.1191H15.911L15.7008 50.7531H14.65L14.4399 52.014H13.3891L14.65 46.0245Z" fill="#27348B"/>
<path d="M17.4872 46.0245H18.5379V48.4413H19.6938V46.0245H20.7446V52.014H19.6938V49.4921H18.5379V52.014H17.4872V46.0245Z" fill="#27348B"/>
<path d="M21.5852 46.0245H22.636V48.4413H23.7919V46.0245H24.8426V52.014H23.7919V49.4921H22.636V52.014H21.5852V46.0245Z" fill="#27348B"/>
<path d="M26.8391 46.0245H25.7884V52.014H26.8391V46.0245Z" fill="#27348B"/>
<path d="M29.7814 50.7531C30.2017 50.9632 30.4118 51.0683 30.7271 51.0683C31.1474 51.0683 31.4626 50.7531 31.4626 50.2277C31.4626 49.8074 31.2525 49.387 30.7271 49.387H30.5169V48.3363H30.8322C31.2525 48.3363 31.4626 48.021 31.4626 47.6007C31.4626 47.1804 31.1474 46.8651 30.8322 46.8651C30.5169 46.8651 30.3068 46.9702 29.8865 47.1804V46.1296C30.4118 45.9194 30.7271 45.8144 31.0423 45.8144C31.7779 45.8144 32.5134 46.3398 32.5134 47.2855C32.5134 47.9159 32.1982 48.4413 31.7779 48.6515C32.3033 48.9667 32.6185 49.4921 32.6185 50.2277C32.6185 51.2785 31.988 52.014 31.1474 52.014C30.8322 52.014 30.4118 51.9089 29.8865 51.6988V50.7531H29.7814Z" fill="#27348B"/>
<path d="M35.0353 49.8074L34.615 47.6007L34.2997 49.8074H35.0353ZM34.0896 46.0245H35.1404L36.4013 52.1191H35.3505L35.1404 50.8581H34.0896L33.8794 52.1191H32.8286L34.0896 46.0245Z" fill="#27348B"/>
<path d="M37.8724 48.8616L36.6115 46.0245H37.7674L38.5029 47.7058L39.1334 46.0245H40.2893L39.0283 48.8616L40.3943 52.014H39.2385L38.5029 50.0175L37.6623 52.014H36.5064L37.8724 48.8616Z" fill="#27348B"/>
<path d="M42.2858 51.0683C42.7061 51.0683 42.9162 50.7531 42.9162 50.2277C42.9162 49.8074 42.8112 49.387 42.3908 49.387H41.9705V51.0683H42.2858ZM42.1807 48.4413C42.601 48.4413 42.8112 48.2312 42.8112 47.7058C42.8112 47.1804 42.601 46.9702 42.1807 46.9702H41.9705V48.4413H42.1807ZM40.9197 46.0245H42.4959C43.4416 46.0245 43.8619 46.7601 43.8619 47.6007C43.8619 48.1261 43.6518 48.5464 43.2315 48.8616C43.7569 49.1769 43.967 49.7023 43.967 50.3328C43.967 51.2785 43.4416 52.1191 42.4959 52.1191H40.9197V46.0245Z" fill="#27348B"/>
<path d="M46.3838 50.9632C46.9092 50.9632 47.1194 50.5429 47.1194 49.0718C47.1194 48.021 47.0143 47.1804 46.3838 47.1804C45.8585 47.1804 45.6483 47.9159 45.6483 49.0718C45.6483 50.2277 45.7534 50.9632 46.3838 50.9632ZM46.3838 45.9194C47.2245 45.9194 48.1702 46.7601 48.1702 48.9667C48.1702 51.2785 47.1194 52.014 46.3838 52.014C45.5432 52.014 44.5975 51.1734 44.5975 48.8616C44.5975 46.9702 45.4381 45.9194 46.3838 45.9194Z" fill="#27348B"/>
<path d="M50.2718 48.5464C50.7972 48.5464 50.9022 48.2312 50.9022 47.8109C50.9022 47.3905 50.7972 47.0753 50.2718 47.0753H49.9565V48.5464H50.2718ZM48.9057 46.0245H50.3768C51.4276 46.0245 51.8479 46.9702 51.8479 47.8109C51.8479 48.4413 51.6378 49.5972 50.2718 49.5972H49.8514V52.014H48.8007V46.0245H48.9057Z" fill="#27348B"/>
<path d="M55.946 50.9632C56.4714 50.9632 56.6815 50.5429 56.6815 49.0718C56.6815 48.021 56.5765 47.1804 55.946 47.1804C55.4206 47.1804 55.2104 47.9159 55.2104 49.0718C55.1054 50.2277 55.3155 50.9632 55.946 50.9632ZM52.5835 46.0245H53.6343V48.4413H54.1596C54.2647 46.7601 55.1054 45.9194 55.946 45.9194C56.7866 45.9194 57.7323 46.7601 57.7323 48.9667C57.7323 51.2785 56.6815 52.014 55.946 52.014C55.1054 52.014 54.2647 51.2785 54.1596 49.387H53.6343V51.9089H52.5835V46.0245Z" fill="#27348B"/>
<path d="M59.8339 51.0683C60.2542 51.0683 60.4644 50.7531 60.4644 50.2277C60.4644 49.8074 60.3593 49.387 59.939 49.387H59.5187V51.0683H59.8339ZM59.7288 48.4413C60.1492 48.4413 60.3593 48.2312 60.3593 47.7058C60.3593 47.1804 60.1492 46.9702 59.7288 46.9702H59.5187V48.4413H59.7288ZM58.4679 46.0245H60.0441C60.9898 46.0245 61.4101 46.7601 61.4101 47.6007C61.4101 48.1261 61.1999 48.5464 60.7796 48.8616C61.305 49.1769 61.5152 49.7023 61.5152 50.3328C61.5152 51.2785 60.9898 52.1191 60.0441 52.1191H58.4679V46.0245Z" fill="#27348B"/>
<path d="M63.932 49.8074L63.6168 47.6007L63.3015 49.8074H63.932ZM62.9863 46.0245H64.0371L65.298 52.1191H64.2472L64.0371 50.8581H62.9863L62.7761 52.1191H61.7253L62.9863 46.0245Z" fill="#27348B"/>
<path d="M65.8234 46.0245H66.8742V48.4413H68.0301V46.0245H69.0808V52.014H68.0301V49.4921H66.8742V52.014H65.8234V46.0245Z" fill="#27348B"/>
<path d="M70.0266 46.0245H71.0773V48.4413H72.2332V46.0245H73.284V52.014H72.2332V49.4921H71.0773V52.014H70.0266V46.0245Z" fill="#27348B"/>
<path d="M76.1211 48.7566V47.0753H75.8059C75.3856 47.0753 75.1754 47.3905 75.1754 47.9159C75.1754 48.4413 75.3856 48.7566 75.7008 48.7566H76.1211ZM77.1719 52.014H76.1211V49.7023C75.8059 49.7023 75.4906 49.9124 75.1754 50.8581L74.8602 51.9089H73.8094L74.1246 50.8581C74.3348 50.2277 74.65 49.4921 74.8602 49.387C74.4399 49.0718 74.1246 48.4413 74.1246 47.8109C74.1246 46.8652 74.65 45.9194 75.5957 45.9194H77.0668V52.014H77.1719Z" fill="#27348B"/>
<path d="M83.2665 46.0245L82.2157 51.5937C81.9005 53.38 81.4801 53.6953 80.9548 53.6953C80.8497 53.6953 80.5344 53.5902 80.4294 53.5902V52.6445C80.5344 52.6445 80.6395 52.7496 80.7446 52.7496C80.9548 52.7496 81.1649 52.6445 81.1649 52.2242L79.7989 46.2347H80.9548L81.5852 50.0175L82.1106 46.2347H83.2665V46.0245Z" fill="#27348B"/>
<path d="M84.7376 46.0245V48.3363C85.0528 48.3363 85.1579 48.2312 85.3681 47.8109L85.6833 46.8652C85.7884 46.4448 86.1036 45.9194 86.7341 45.9194C86.8392 45.9194 86.9443 45.9194 87.0493 45.9194L86.9443 46.9702C86.7341 46.9702 86.5239 47.0753 86.4189 47.3905L86.3138 47.9159C86.2087 48.2312 86.1036 48.6515 85.8935 48.7566C86.3138 49.1769 86.5239 49.9124 86.7341 50.648L87.0493 51.9089H85.8935L85.5782 50.8581C85.263 49.8074 85.0528 49.282 84.6325 49.282V51.9089H83.5817V45.9194H84.7376V46.0245Z" fill="#27348B"/>
<path d="M88.9407 48.5464C89.4661 48.5464 89.5712 48.2312 89.5712 47.8109C89.5712 47.3905 89.4661 47.0753 88.9407 47.0753H88.6255V48.5464H88.9407ZM87.6798 46.0245H89.1509C90.2017 46.0245 90.622 46.9702 90.622 47.8109C90.622 48.4413 90.4118 49.5972 89.0458 49.5972H88.6255V52.014H87.5747V46.0245H87.6798Z" fill="#27348B"/>
<path d="M93.0388 49.8074L92.7236 47.6007L92.4083 49.8074H93.0388ZM92.0931 46.0245H93.1439L94.4048 52.1191H93.354L93.1439 50.8581H92.0931L91.8829 52.1191H90.8322L92.0931 46.0245Z" fill="#27348B"/>
<path d="M96.4013 44.8687C96.4013 45.1839 96.1912 45.394 96.0861 45.394C95.8759 45.394 95.7709 45.1839 95.7709 44.8687C95.7709 44.5534 95.981 44.3433 96.0861 44.3433C96.2963 44.3433 96.4013 44.5534 96.4013 44.8687ZM94.9302 46.0245H95.981V52.014H94.9302V46.0245ZM95.1404 44.8687C95.1404 45.1839 94.9302 45.394 94.8252 45.394C94.615 45.394 94.5099 45.1839 94.5099 44.8687C94.5099 44.5534 94.7201 44.3433 94.8252 44.3433C94.9302 44.3433 95.1404 44.5534 95.1404 44.8687Z" fill="#27348B"/>
<path d="M96.8217 46.0245H97.8724V48.4413H99.0283V46.0245H100.079V52.014H99.0283V49.4921H97.8724V52.014H96.8217V46.0245Z" fill="#27348B"/>
<path d="M101.025 46.0245H102.076V49.387L103.652 46.0245H104.282V52.014H103.231V48.7566L101.655 52.1191H101.025V46.0245Z" fill="#27348B"/>
<path d="M32.1982 55.5867H31.0423V59.2645H30.622V55.0613H32.1982V55.5867Z" fill="#ED9D00"/>
<path d="M33.1439 56.8476H33.5642C33.8794 56.8476 33.9845 56.6375 33.9845 56.2172C33.9845 55.9019 33.8794 55.5867 33.5642 55.5867H33.1439V56.8476ZM33.5642 55.0613C34.0896 55.0613 34.4048 55.5867 34.4048 56.3222C34.4048 56.9527 34.0896 57.4781 33.5642 57.4781H33.1439V59.2645H32.7236V55.0613H33.5642Z" fill="#ED9D00"/>
<path d="M36.2962 58.7391C36.9267 58.7391 37.347 58.0035 37.347 57.1629C37.347 56.2172 36.9267 55.5867 36.2962 55.5867C35.6658 55.5867 35.2455 56.2172 35.2455 57.1629C35.2455 58.0035 35.6658 58.7391 36.2962 58.7391ZM36.2962 54.9562C37.1369 54.9562 37.7673 55.9019 37.7673 57.1629C37.7673 58.3187 37.242 59.3695 36.2962 59.3695C35.4556 59.3695 34.9302 58.3187 34.9302 57.1629C34.8251 55.9019 35.3505 54.9562 36.2962 54.9562Z" fill="#ED9D00"/>
<path d="M40.8146 59.2645H40.4994V55.9019H40.3943L39.6588 57.5832H39.5537L38.7131 55.9019V59.2645H38.3978V55.0613H38.7131L39.5537 56.7426L40.4994 55.0613H40.8146V59.2645Z" fill="#ED9D00"/>
<path d="M42.1807 57.4781H43.0213L42.601 55.9019L42.1807 57.4781ZM43.967 59.2645H43.5467L43.2315 58.0035H42.0756L41.7604 59.2645H41.3401L42.4959 55.0613H42.8112L43.967 59.2645Z" fill="#ED9D00"/>
<path d="M44.9127 58.634H46.1737L45.5432 55.7969L44.9127 58.634ZM47.0143 60H46.594V59.2645H44.4924V60H44.0721V58.634H44.4924L45.333 54.9562H45.6483L46.594 58.634H47.0143V60Z" fill="#ED9D00"/>
<path d="M49.8514 55.9019C49.5362 55.5867 49.221 55.4816 48.9057 55.4816C48.2753 55.4816 47.8549 56.2172 47.8549 57.0578C47.8549 58.0035 48.2753 58.634 48.9057 58.634C49.221 58.634 49.5362 58.4238 49.8514 58.1086V58.7391C49.6413 58.9492 49.326 59.1594 48.9057 59.1594C47.96 59.1594 47.4346 57.8984 47.4346 57.0578C47.4346 55.7969 48.0651 54.8511 48.9057 54.8511C49.221 54.8511 49.4311 54.9562 49.8514 55.1664V55.9019Z" fill="#ED9D00"/>
<path d="M50.9022 58.634H51.4276C51.7428 58.634 51.8479 58.3187 51.8479 58.0035C51.8479 57.5832 51.6378 57.268 51.4276 57.268H50.9022V58.634ZM50.587 59.2645V55.0613H51.0073V56.7426H51.4276C52.0581 56.7426 52.3733 57.268 52.3733 58.0035C52.3733 58.634 52.0581 59.2645 51.4276 59.2645H50.587Z" fill="#ED9D00"/>
<path d="M53.3191 55.0613V56.7426H53.4241C53.7394 56.7426 53.8445 56.6375 54.0546 56.007C54.2648 55.2715 54.4749 55.0613 54.7902 55.0613H54.8952V55.5867C54.58 55.5867 54.4749 55.7969 54.3698 56.3222C54.2648 56.6375 54.1597 56.9527 54.0546 57.0578C54.2648 57.1629 54.4749 57.4781 54.58 58.0035L55.0003 59.2645H54.58L54.1597 58.1086C53.9495 57.4781 53.6343 57.268 53.4241 57.268H53.3191V59.2645H52.8987V55.0613H53.3191Z" fill="#ED9D00"/>
<path d="M56.3663 57.4781H57.207L56.7866 55.9019L56.3663 57.4781ZM58.0476 59.2645H57.7324L57.4171 58.0035H56.2612L55.946 59.2645H55.5257L56.6816 55.0613H56.9968L58.0476 59.2645Z" fill="#ED9D00"/>
<path d="M62.1457 55.9019C61.8304 55.5867 61.5152 55.4816 61.1999 55.4816C60.5695 55.4816 60.1492 56.2172 60.1492 57.0578C60.1492 58.0035 60.5695 58.634 61.1999 58.634C61.5152 58.634 61.8304 58.4238 62.1457 58.1086V58.7391C61.9355 58.9492 61.6203 59.1594 61.1999 59.1594C60.2542 59.1594 59.7289 57.8984 59.7289 57.0578C59.7289 55.7969 60.3593 54.8511 61.1999 54.8511C61.5152 54.8511 61.7253 54.9562 62.1457 55.1664V55.9019Z" fill="#ED9D00"/>
<path d="M65.0879 59.2645H64.7726V55.5867H63.3015V59.2645H62.8812V55.0613H65.0879V59.2645Z" fill="#ED9D00"/>
<path d="M66.3488 54.9562H65.9285V59.1594H66.3488V54.9562Z" fill="#ED9D00"/>
<path d="M69.3961 59.2645H69.0809L68.1351 55.7969L67.2945 59.2645H66.8742L68.0301 54.9562H68.2402L69.3961 59.2645Z" fill="#ED9D00"/>
<path d="M70.3418 55.0613V56.7426H70.4469C70.7621 56.7426 70.8672 56.6375 71.0773 56.007C71.2875 55.2715 71.4977 55.0613 71.8129 55.0613H71.918V55.5867C71.6027 55.5867 71.4977 55.7969 71.3926 56.3222C71.2875 56.6375 71.1824 56.9527 71.0773 57.0578C71.2875 57.1629 71.4977 57.4781 71.6027 58.0035L72.0231 59.2645H71.6027L71.1824 58.1086C70.9723 57.4781 70.657 57.268 70.4469 57.268H70.3418V59.2645H69.9215V55.0613H70.3418Z" fill="#ED9D00"/>
<path d="M73.3891 57.4781H74.2297L73.8094 55.9019L73.3891 57.4781ZM75.0703 59.2645H74.65L74.3348 58.0035H73.1789L72.8637 59.2645H72.4434L73.5992 55.0613H73.9145L75.0703 59.2645Z" fill="#ED9D00"/>
<path d="M51.8479 22.8021C51.8479 26.2697 50.587 32.1541 50.2717 32.1541C49.9565 32.1541 48.6956 26.2697 48.6956 22.8021C48.6956 19.965 49.5362 20.1751 50.2717 20.1751C50.9022 20.0701 51.8479 19.8599 51.8479 22.8021Z" fill="#ED9D00"/>
<path d="M51.2174 18.0736C51.2174 18.8091 50.7971 19.4396 50.2717 19.4396C49.7463 19.4396 49.326 18.8091 49.326 18.0736C49.326 17.338 49.7463 16.7075 50.2717 16.7075C50.7971 16.7075 51.2174 17.338 51.2174 18.0736Z" fill="#ED9D00"/>
<path d="M56.7866 22.8021C56.7866 26.2697 55.5257 32.1541 55.2104 32.1541C54.8952 32.1541 53.6342 26.2697 53.6342 22.8021C53.6342 19.965 54.4749 20.1751 55.2104 20.1751C55.946 20.0701 56.7866 19.8599 56.7866 22.8021Z" fill="#ED9D00"/>
<path d="M56.1562 18.0736C56.1562 18.8091 55.7358 19.4396 55.2104 19.4396C54.6851 19.4396 54.2647 18.8091 54.2647 18.0736C54.2647 17.338 54.6851 16.7075 55.2104 16.7075C55.7358 16.7075 56.1562 17.338 56.1562 18.0736Z" fill="#ED9D00"/>
<path d="M76.4364 38.3538C76.4364 38.3538 72.8637 37.5131 71.6027 34.676C70.2367 31.8389 69.8164 29.4221 69.1859 23.958C69.1859 23.958 68.9758 18.4939 67.6098 13.9755C67.6098 13.9755 66.8742 11.0333 65.5082 8.61646C64.1422 6.19965 60.5695 1.89142 59.6238 0.105079C59.3085 0.735552 58.8882 2.10158 59.4136 3.57268C59.939 5.04378 62.8812 7.98599 64.3523 12.1891C63.5117 10.8231 60.4644 7.67075 58.3628 3.88792C58.3628 3.88792 57.312 5.14886 58.1527 7.25044C58.8882 9.35201 62.7761 13.6602 63.4066 15.3415C63.4066 15.3415 63.932 16.7075 64.3523 18.3888C64.3523 18.3888 62.7761 15.5517 61.8304 14.3958C60.8847 13.2399 59.5187 11.5587 57.9425 8.9317C56.8917 10.9282 58.2577 12.9247 58.3628 13.1349C58.7831 13.9755 62.7761 19.3345 63.7218 22.3818C60.7796 17.5482 60.2542 18.0736 57.9425 14.2907C57.7323 14.8161 57.312 15.972 57.9425 17.5482C58.573 19.1243 61.5152 22.3818 62.7761 24.9037C64.0371 27.4256 64.3523 29.0017 64.3523 29.0017C64.3523 29.0017 66.0336 25.2189 65.9285 19.6497C66.2437 22.1716 66.9793 28.1611 63.0914 32.2592C59.939 35.5166 56.3663 33.5201 54.7901 33.6252C53.214 33.7303 52.7936 35.7268 52.7936 35.7268C55.8409 36.8827 62.0406 39.7198 64.1422 41.6112C66.2437 43.6077 68.1351 44.1331 70.4469 43.0823C72.6535 41.9264 76.4364 38.3538 76.4364 38.3538Z" fill="#ED9D00"/>
<path d="M28.9407 38.3538C28.9407 38.3538 32.5134 37.5131 33.7744 34.676C35.1404 31.8389 35.5607 29.4221 36.1912 23.958C36.1912 23.958 36.4013 18.4939 37.7674 13.9755C37.7674 13.9755 38.5029 11.0333 39.8689 8.61646C41.235 6.19965 44.8076 1.89142 45.7533 0.105079C46.0686 0.735552 46.4889 2.10158 45.9635 3.57268C45.4381 5.04378 42.4959 7.98599 41.0248 12.1891C41.8654 10.8231 44.9127 7.67075 47.0143 3.88792C47.0143 3.88792 48.0651 5.14886 47.2245 7.25044C46.4889 9.35201 42.601 13.6602 41.9705 15.3415C41.9705 15.3415 41.4451 16.7075 41.0248 18.3888C41.0248 18.3888 42.601 15.5517 43.5467 14.3958C44.4924 13.2399 45.8584 11.5587 47.4346 8.9317C48.4854 10.9282 47.1194 12.9247 47.0143 13.1349C46.594 13.9755 42.601 19.3345 41.6553 22.3818C44.5975 17.5482 45.1229 18.0736 47.4346 14.2907C47.6448 14.8161 48.0651 15.972 47.4346 17.5482C46.8041 19.1243 43.8619 22.3818 42.601 24.9037C41.34 27.4256 41.0248 29.0017 41.0248 29.0017C41.0248 29.0017 39.3435 25.2189 39.4486 19.6497C39.1334 22.1716 38.3978 28.1611 42.2857 32.2592C45.4381 35.5166 49.0108 33.5201 50.587 33.6252C52.1632 33.7303 52.5835 35.7268 52.5835 35.7268C49.5362 36.8827 43.3365 39.7198 41.235 41.6112C39.1334 43.6077 37.242 44.1331 34.9302 43.0823C32.8287 41.9264 28.9407 38.3538 28.9407 38.3538Z" fill="#27348B"/>
<path d="M54.2647 22.8021C54.2647 26.2697 53.0038 32.1541 52.6885 32.1541C52.3733 32.1541 51.1124 26.2697 51.1124 22.8021C51.1124 19.965 51.953 20.1751 52.6885 20.1751C53.4241 20.0701 54.2647 19.8599 54.2647 22.8021Z" fill="#27348B"/>
<path d="M53.6343 18.0736C53.6343 18.8091 53.2139 19.4396 52.6885 19.4396C52.1631 19.4396 51.7428 18.8091 51.7428 18.0736C51.7428 17.338 52.1631 16.7075 52.6885 16.7075C53.2139 16.7075 53.6343 17.338 53.6343 18.0736Z" fill="#27348B"/>
</g>
<defs>
<clipPath id="clip0">
<rect width="103.292" height="60" fill="white" transform="translate(0.989777)"/>
</clipPath>
</defs>
</svg>
